<svg xmlns="http://www.w3.org/2000/svg" width="1791.999" height="1791.999" fill-rule="evenodd" clip-rule="evenodd" image-rendering="optimizeQuality" shape-rendering="geometricPrecision" text-rendering="geometricPrecision" viewBox="0 0 47413.32 47413.32"><rect width="47413.32" height="47413.32" fill="none"/><path fill="#1e7dac" fill-rule="nonzero" d="M29543.96 14318.37c0,0 2618.13,3006.82 2790.26,3534.33 169.34,526.09 -304,1356.22 -304,1356.22l-3520.45 -3774.43 -4808.65 -1564.49 -61.1 -2046.19c0,0 280.41,-242.94 744.07,-140.2 1316,295.7 5159.87,2634.76 5159.87,2634.76z"/><path fill="#664624" fill-rule="nonzero" d="M19250.61 45539.98l0 -1343.76 -2147.52 0c0,0 -1675.55,-130.49 -1917.07,262.36 -138.83,226.27 -86.07,1081.4 -86.07,1081.4l4150.66 0z"/><polygon fill="#9d764b" fill-rule="nonzero" points="15087.45 45534.4 19257.53 45534.4 19257.53 45193.59 15087.45 45193.59"/><path fill="#664624" fill-rule="nonzero" d="M21024.69 45539.98l0 -1343.76 2148.93 0c0,0 1675.51,-130.49 1917.07,262.36 138.83,226.27 87.45,1081.4 87.45,1081.4l-4153.45 0z"/><polygon fill="#9d764b" fill-rule="nonzero" points="21019.15 45534.4 25189.21 45534.4 25189.21 45193.59 21019.15 45193.59"/><path fill="#132e42" fill-rule="nonzero" d="M16440.93 23427.63c0,0 -187.39,4755.9 -187.39,6120.5 0,1363.18 559.44,14652.27 559.44,14652.27l2437.63 0 784.32 -15901.64 216.56 0 773.2 15901.64 2440.46 0c0,0 558.02,-13187.73 558.02,-14591.21 0,-1404.83 -187.38,-6181.56 -187.38,-6181.56l-7394.86 0z"/><path fill="#fff" fill-rule="nonzero" d="M21550.82 14752.86l-2731.95 0 0 -3181.7c0,0 465.04,670.51 1313.25,670.51 846.77,0 1418.7,-795.45 1418.7,-795.45l0 3306.64z"/><path fill-rule="nonzero" d="M22791.85 5772.71c0,1668.6 -1185.51,3020.7 -2645.85,3020.7 -1461.79,0 -2645.89,-1352.1 -2645.89,-3020.7 0,-1667.18 1184.1,-3019.28 2645.89,-3019.28 1460.34,0 2645.85,1352.1 2645.85,3019.28z"/><path fill="#664624" fill-rule="nonzero" d="M20144.59 12392.96c1395.15,0 1014.76,-692.68 1214.68,-1099.45l-317.91 -1972.59 -1797.67 0c0,0 -258.23,1515.89 -319.29,1978.17 147.12,434.49 -174.92,1093.87 1220.19,1093.87z"/><path fill="#815932" fill-rule="nonzero" d="M22615.56 6537.62c0,1899.03 -434.49,3938.26 -2473.73,3938.26 -2039.23,0 -2473.75,-2039.23 -2473.75,-3938.26 0,-1899.04 1075.85,-2694.45 2440.42,-2694.45 1367.35,0 2507.06,795.41 2507.06,2694.45z"/><path fill="#815932" fill-rule="nonzero" d="M18291.36 7184.49c0 390.1-277.61 705.22-620.49 705.22-342.88 0-620.54-315.12-620.54-705.22 0-390.06 277.66-706.56 620.54-706.56 342.88 0 620.49 316.5 620.49 706.56zM23262.47 7184.49c0 390.1-277.65 705.22-619.15 705.22-342.88 0-619.12-315.12-619.12-705.22 0-390.06 276.24-706.56 619.12-706.56 341.5 0 619.15 316.5 619.15 706.56z"/><path fill="#9d744b" fill-rule="nonzero" d="M19503.26 7058.17l-1189.68 0c-181.84 0-330.38-148.5-330.38-331.76l0-496.96c0-181.88 148.54-330.41 330.38-330.41l1189.68 0c181.84 0 330.37 148.53 330.37 330.41l0 496.96c0 183.26-148.53 331.76-330.37 331.76zM21970.06 7058.17l-1188.27 0c-181.88 0-331.79-148.5-331.79-331.76l0-496.96c0-181.88 149.91-330.41 331.79-330.41l1188.27 0c183.25 0 330.38 148.53 330.38 330.41l0 496.96c0 183.26-147.13 331.76-330.38 331.76z"/><path fill-rule="nonzero" d="M18313.58 5992.06c-130.5 0-237.36 106.9-237.36 238.77l0 495.58c0 131.87 106.86 238.77 237.36 238.77l1189.68 0c130.49 0 238.77-106.9 238.77-238.77l0-495.58c0-131.87-108.28-238.77-238.77-238.77l-1189.68 0zm1189.68 1159.13l-1189.68 0c-233.19 0-424.78-190.17-424.78-424.78l0-495.58c0-234.6 191.59-424.78 424.78-424.78l1189.68 0c233.22 0 423.4 190.18 423.4 424.78l0 495.58c0 234.61-190.18 424.78-423.4 424.78zM20781.79 5992.06c-131.9 0-238.77 106.9-238.77 238.77l0 495.58c0 131.87 106.87 238.77 238.77 238.77l1188.27 0c131.87 0 237.39-106.9 237.39-238.77l0-495.58c0-131.87-105.52-238.77-237.39-238.77l-1188.27 0zm1188.27 1159.13l-1188.27 0c-234.6 0-424.81-190.17-424.81-424.78l0-495.58c0-234.6 190.21-424.78 424.81-424.78l1188.27 0c233.22 0 424.77 190.18 424.77 424.78l0 495.58c0 234.61-191.55 424.78-424.77 424.78z"/><polygon fill-rule="nonzero" points="19926.66 6500.15 20449.49 6500.15 20449.49 6313.99 19926.66 6313.99"/><polygon fill-rule="nonzero" points="22722.46 6504.31 22285.18 6523.74 22317.1 6340.48 22743.26 6329.39"/><polygon fill-rule="nonzero" points="17586.18 6504.31 18023.46 6523.74 17992.91 6340.48 17548.71 6329.39"/><path fill-rule="nonzero" d="M19104.86 6452.93c0 97.19-79.14 176.29-176.3 176.29-97.19 0-174.92-79.1-174.92-176.29 0-97.15 77.73-176.3 174.92-176.3 97.16 0 176.3 79.15 176.3 176.3zM21552.2 6452.93c0 97.19-79.1 176.29-176.29 176.29-97.16 0-176.3-79.1-176.3-176.29 0-97.15 79.14-176.3 176.3-176.3 97.19 0 176.29 79.15 176.29 176.3zM21037.19 9172.38c0 291.53-238.77 528.89-528.88 528.89l-702.43 0c-290.12 0-527.51-237.36-527.51-528.89l0-480.29c0-290.16 527.51-528.93 527.51-528.93l702.43 0c0 0 528.88 238.77 528.88 528.93l0 480.29zm-438.65-1313.22l-882.9 0c0 0-837.05 376.19-837.05 837.09l0 941.17c0 460.87 377.56 838.46 837.05 838.46l882.9 0c459.49 0 837.09-377.59 837.09-838.46l0-941.17c0-460.9-837.09-837.09-837.09-837.09z"/><path fill="#fff" fill-rule="nonzero" d="M20813.72 8553.26c0,0 -294.33,480.29 -659.42,480.29 -363.68,0 -659.38,-480.29 -659.38,-480.29l1318.8 0z"/><path fill="#1e7dac" fill-rule="nonzero" d="M20143.21 4247.11c1207.73,0 1525.6,630.24 2632.01,1428.45 111.03,-302.62 106.87,-2164.18 -398.43,-2670.86 -508.05,-509.46 -1760.21,-948.15 -2233.58,-948.15 -473.37,0 -1754.66,452.57 -2264.12,980.08 -488.63,503.92 -478.92,2330.77 -366.47,2633.39 963.37,-824.59 1424.28,-1422.91 2630.59,-1422.91z"/><path fill="#18658c" fill-rule="nonzero" d="M20151.55 4123.58c-2.79,0 -6.96,0 -9.72,0 -4.16,0 -6.95,0 -9.71,0 -1450.66,0 -2046.19,860.67 -2626.46,1546.44 1045.31,297.07 1288.24,-1291.04 2597.29,-1310.46 0,0 26.38,1.37 38.88,0 12.47,1.37 37.47,0 37.47,0 1310.46,19.42 1553.37,1607.53 2598.67,1310.46 -580.27,-685.77 -1175.8,-1546.44 -2626.42,-1546.44z"/><path fill="#1e7dac" fill-rule="nonzero" d="M20359.77 2138.48l-434.49 0c-74.98,0 -134.66,-61.1 -134.66,-134.66 0,-64.28 45.51,-117.95 107.01,-130.49l489.32 0c60.55,12.54 106.1,66.21 106.1,130.49 0,73.56 -59.72,134.66 -133.28,134.66z"/><polygon fill="#664624" fill-rule="nonzero" points="23841.32 23427.63 16438.14 23427.63 16404.83 24367.41 23870.46 24367.41"/><polygon fill="#132e42" fill-rule="nonzero" points="21764.59 24367.41 22096.96 24367.41 22096.96 23428.57 21764.59 23428.57"/><polygon fill="#132e42" fill-rule="nonzero" points="18190.04 24367.41 18522.45 24367.41 18522.45 23428.57 18190.04 23428.57"/><path fill="#1e7dac" fill-rule="nonzero" d="M24099.51 11661.39c-249.85,-83.27 -2911,-340.09 -2911,-340.09l-1068.9 3380.21 -1074.44 -3380.21c0,0 -2654.23,256.82 -2904.08,340.09 295.66,279.03 335.92,989.8 299.83,1821.31 -44.43,1021.68 -20.84,9944.93 -20.84,9944.93l7403.19 0c0,0 -15.25,-9163.4 -33.3,-10186.49 -12.5,-831.51 13.88,-1300.72 309.54,-1579.75z"/><polygon fill="#0f5070" fill-rule="nonzero" points="20119.62 14701.51 18992.41 10881.23 19106.24 12877.46"/><polygon fill="#155f84" fill-rule="nonzero" points="17985.99 13431.31 19106.24 12877.46 18992.41 10881.23 18128.95 11415.7"/><polygon fill="#0f5070" fill-rule="nonzero" points="20119.62 14701.51 21248.2 10881.23 21134.38 12877.46"/><polygon fill="#155f84" fill-rule="nonzero" points="22253.25 13431.31 21134.38 12877.46 21248.2 10881.23 22111.64 11415.7"/><polygon fill="#155f84" fill-rule="nonzero" points="23111.14 15807.88 21929.8 16071.65 20749.83 15807.88 20749.83 15141.58 23111.14 15141.58"/><path fill="#fff" fill-rule="nonzero" d="M22054.74 15730.15c0,68.02 -55.55,124.95 -124.94,124.95 -66.64,0 -123.54,-56.93 -123.54,-124.95 0,-68.02 56.9,-123.53 123.54,-123.53 69.39,0 124.94,55.51 124.94,123.53z"/><polygon fill="#fff" fill-rule="nonzero" points="19371.39 16256.28 17010.07 16256.28 17010.07 14970.83 19371.39 14970.83"/><polygon fill="#bdbdbd" fill-rule="nonzero" points="18072.05 14972.21 18072.05 14802.87 17983.2 14972.21"/><polygon fill="#d9d9d9" fill-rule="nonzero" points="18072.05 15140.17 18308.54 15140.17 18308.54 14803.12 18072.05 14803.12"/><polygon fill="#d9d9d9" fill-rule="nonzero" points="17983.2 15542.77 19151.64 15542.77 19151.64 15433.98 17983.2 15433.98"/><polygon fill="#d9d9d9" fill-rule="nonzero" points="17983.2 15899.53 19151.64 15899.53 19151.64 15790.89 17983.2 15790.89"/><polygon fill="#d9d9d9" fill-rule="nonzero" points="17176.66 16042.48 17889.96 16042.48 17889.96 15294.5 17176.66 15294.5"/><polygon fill="#0a4f6f" fill-rule="nonzero" points="16507.57 42678.92 19326.96 42678.92 19250.61 44200.39 16440.93 44200.39"/><polygon fill="#0a4f6f" fill-rule="nonzero" points="20951.13 42678.92 23745.54 42678.92 23830.2 44200.39 21019.15 44200.39"/><path fill="#0a4f6f" fill-rule="nonzero" d="M23952.39 26707.89c-36.09,-4.17 -907.9,-116.62 -1421.53,-956.46 -397.02,-649.67 -358.14,-1354.85 -356.76,-1384.02l259.61 0c-1.38,5.54 -45.81,673.29 309.54,1254.91 448.4,734.35 1193.85,835.71 1202.18,837.08l6.96 248.49z"/><polygon fill="#9d764b" fill-rule="nonzero" points="32560.48 12705.33 32560.48 13924.14 30389.38 19276.98 30389.38 18119.22"/><polygon fill="#cf9e5f" fill-rule="nonzero" points="21734.08 19268.64 30391.27 19268.64 30391.27 18119.59 21734.08 18119.59"/><polygon fill="#d6b792" fill-rule="nonzero" points="23909.34 12717.79 32566.03 12717.79 30396.3 18133.1 21738.25 18133.1"/><polygon fill="#cf9e5f" fill-rule="nonzero" points="21795.14 17988.73 30452.29 17988.73 30452.29 16839.86 21795.14 16839.86"/><polygon fill="#d6b792" fill-rule="nonzero" points="23964.85 11415.7 32622.96 11415.7 30451.86 16830.98 21795.14 16830.98"/><polygon fill="#9d764b" fill-rule="nonzero" points="32622.96 11415.7 32622.96 12635.9 30451.86 17988.73 30451.86 16830.98"/><path fill="#ac1e23" fill-rule="nonzero" d="M24148.11 14228.14c31.92,8.33 72.18,11.12 134.66,11.12 222.1,0 409.52,-112.44 496.96,-298.48 79.14,-169.34 9.71,-270.7 -201.3,-270.7 -81.9,0 -142.96,5.58 -176.3,13.92l-254.02 544.14zm-22.22 -837.05c138.83,-22.22 326.22,-37.51 581.65,-37.51 256.82,0 416.45,48.6 494.21,147.16 76.32,92.99 81.9,245.69 -2.79,426.16 -84.69,180.46 -213.76,335.95 -373.43,437.28 -202.67,131.9 -442.82,194.34 -688.55,194.34 -55.51,0 -104.11,-2.76 -137.41,-11.09l-309.58 662.17 -412.27 0 848.17 -1818.51z"/><polygon fill="#ac1e23" fill-rule="nonzero" points="26144.33 13366.08 25285.03 15209.6 24869.96 15209.6 25727.85 13366.08"/><polygon fill="#ac1e23" fill-rule="nonzero" points="25634.86 14984.71 27102.16 13721.47 27107.7 13711.75 26309.5 13711.75 26470.54 13366.08 27807.34 13366.08 27694.9 13607.64 26255.36 14854.22 26249.82 14865.3 27121.58 14865.3 26960.58 15209.6 25532.13 15209.6"/><polygon fill="#ac1e23" fill-rule="nonzero" points="27213.23 14984.71 28680.53 13721.47 28684.69 13711.75 27886.49 13711.75 28047.53 13366.08 29384.33 13366.08 29271.89 13607.64 27832.35 14854.22 27828.18 14865.3 28699.95 14865.3 28538.91 15209.6 27109.08 15209.6"/><path fill="#ac1e23" fill-rule="nonzero" d="M30085.35 14425.27l68.02 -391.47c18.04,-109.66 49.97,-245.69 72.18,-355.39l-5.54 0c-79.11,109.7 -170.75,248.49 -249.86,355.39l-291.53 391.47 406.73 0zm-612.16 310.96l-351.22 473.37 -430.36 0 1420.12 -1843.52 545.56 0 -284.58 1843.52 -449.78 0 77.77 -473.37 -527.51 0z"/><path fill="#0a4f6f" fill-rule="nonzero" d="M16324.31 26707.89c37.51-4.17 909.28-116.62 1421.49-956.46 398.44-649.67 359.55-1354.85 356.8-1384.02l-258.23 0c0 5.54 45.81 673.29-309.54 1254.91-448.4 734.35-1193.85 835.71-1200.81 837.08l-9.71 248.49zM20345.89 27127.12c-195.72 0-531.68-31.93-777.37-217.93-285.99-216.56-248.52-1853.23-220.72-2541.78l244.31 1.41c-41.64 1011.97-4.17 2208.57 127.7 2344.61 198.51 149.95 491.42 168 651.05 165.21l0-2509.82 248.51 0 0 2737.46-111.06 12.5c-6.96 1.42-68.02 8.34-162.42 8.34z"/><polygon fill="#d6b792" fill-rule="nonzero" points="19725.36 24461.81 19945.25 24461.81 19945.25 23335.99 19725.36 23335.99"/><polygon fill="#d6b792" fill-rule="nonzero" points="19912.78 24461.81 20569.84 24461.81 20569.84 24369.4 19912.78 24369.4"/><polygon fill="#9d764b" fill-rule="nonzero" points="19789.21 23945.42 20167.6 23945.42 20167.6 23840.04 19789.21 23840.04"/><polygon fill="#d6b792" fill-rule="nonzero" points="19912.78 23427.63 20569.84 23427.63 20569.84 23335.23 19912.78 23335.23"/><path fill="#815932" fill-rule="nonzero" d="M20870.61 19297.78l1349.31 -473.37 589.98 108.27 1009.22 305.42c0,0 -884.27,966.16 -1596.41,975.87 -713.52,8.34 -1198.02,-223.47 -1198.02,-223.47l-154.08 -692.72z"/><path fill="#815932" fill-rule="nonzero" d="M22893.21 18541.21c0,0 -47.22,194.38 -376.22,315.12 -340.09,124.95 -435.86,20.84 -435.86,20.84 0,0 -118.03,324.83 -362.34,469.2 -244.32,144.37 -564.98,6.96 -564.98,6.96l37.47 -491.42 1074.48 -416.48 627.45 95.78z"/><path fill="#155f84" fill-rule="nonzero" d="M20758.16 20084.9l-136.03 -1388.19 -4003.5 -735.74 187.39 -3595.38c199.89,-2154.47 -48.6,-2604.25 -451.16,-2704.2 -292.91,-73.56 -923.15,74.98 -1150.8,1045.31 -145.74,621.91 -413.68,6586.91 -413.68,6586.91l5967.78 791.29z"/><polygon fill="#fff" fill-rule="nonzero" points="21307.89 20259.78 21171.85 18671.7 20273.7 18618.98 20376.44 20238.98"/><path fill="#815932" fill-rule="nonzero" d="M31395.81 18296.9l-1431.21 26.38 -515.04 308.16 -839.84 638.58c0,0 1167.46,596.91 1837.97,356.76 671.88,-240.15 1045.27,-626.08 1045.27,-626.08l-97.15 -703.8z"/><path fill="#815932" fill-rule="nonzero" d="M29235.79 18292.73c0,0 112.45,166.58 463.66,165.21 360.93,-1.38 415.07,-133.29 415.07,-133.29 0,0 222.1,263.78 502.51,313.75 142.99,26.38 794.03,-197.13 794.03,-197.13l-38.84 -309.54 -681.6 -155.5 -899.56 9.71 -555.27 306.79z"/><polygon fill="#155f84" fill-rule="nonzero" points="31134.83 19464.36 30862.75 17894.33 31719.26 17616.68 32030.22 19208.92"/></svg>