<svg xmlns="http://www.w3.org/2000/svg" enable-background="new 0 0 3000 3000" viewBox="0 0 3000 3000"><ellipse cx="1678.67" cy="2751.54" fill="#bac8e5" rx="909.64" ry="87.21"/><radialGradient id="a" cx="1273.08" cy="1318.948" r="976.526" gradientUnits="userSpaceOnUse"><stop offset="0" stop-color="#4a97dd"/><stop offset="1" stop-color="#d5e5ff"/></radialGradient><circle cx="1273.08" cy="1318.95" r="976.53" fill="url(#a)" opacity=".25"/><path fill="#e36c00" d="m1956.21 381.8 89.84 33.59 2.41 125.3 293.21-207.73z"/><path fill="#fab60c" d="m2108.63 452.1 138.13 66.54 94.91-185.68z"/><path fill="#ff8d00" d="m2046.05 415.39 2.26 117.14.15 8.16 60.17-88.59 233.04-119.14z"/><path fill="#575e84" d="M1381.56 829.34c4.35 12.87 7.48 20.42 7.62 20.73l7.53-3.14c-.03-.07-3.16-7.63-7.42-20.21l-7.73 2.62zM1402.08 556.81l5.69 5.85c4.95-4.82 10.41-9.32 16.22-13.38l-4.66-6.68c-6.17 4.3-11.97 9.09-17.25 14.21zM1480.35 516.68l1.81 7.95c6.7-1.53 13.76-2.8 21.01-3.78l-1.1-8.08c-7.48 1.02-14.78 2.33-21.72 3.91zM1438.53 531.26l3.61 7.3c6.14-3.04 12.72-5.77 19.55-8.13l-2.67-7.71c-7.14 2.48-14.05 5.35-20.49 8.54zM1377.1 785.26l-7.9 1.99c1.9 7.57 3.85 14.67 5.76 21.16l7.82-2.29c-1.88-6.41-3.8-13.4-5.68-20.86zM1368.46 743l-8.05 1.26c1.15 7.41 2.48 14.63 3.91 21.6l7.98-1.65c-1.4-6.83-2.7-13.93-3.84-21.21zM1524.48 518.78c6.88-.42 14.03-.63 21.46-.62V510c-7.6 0-14.92.21-21.95.64l.49 8.14zM1365.48 657.39l-8.11-.92c-.8 7.08-1.32 14.49-1.55 22.03l8.15.24c.21-7.31.72-14.49 1.51-21.35zM1393.98 578.52l-6.57-4.83c-4.32 5.89-8.27 12.29-11.74 19.02l7.25 3.73c3.28-6.35 7-12.38 11.06-17.92zM1364.13 700.22l-8.16.33c.28 7.03.82 14.4 1.6 21.94l8.11-.84c-.76-7.37-1.29-14.58-1.55-21.43zM1374.64 615.87l-7.7-2.66c-2.36 6.82-4.37 14.01-5.98 21.39l7.96 1.74c1.54-7.07 3.46-13.95 5.72-20.47zM1864.33 581.36c7.69.98 14.96 1.7 21.83 2.2l.58-8.13c-6.72-.49-13.84-1.2-21.38-2.16l-1.03 8.09zM1908.18 576.29l-.05 8.15c7.64.04 15.06-.24 22.07-.82l-.67-8.12c-6.77.57-13.96.83-21.35.79zM1950.51 572.52l1.66 7.98c7.82-1.62 15.06-3.77 21.49-6.37l-3.06-7.56c-5.99 2.43-12.74 4.43-20.09 5.95zM1821.17 573.96a591.49 591.49 0 0 0 21.49 4.13l1.38-8.04c-6.76-1.17-13.83-2.52-21.19-4.07l-1.68 7.98zM1567.44 518.76c6.94.37 14.1.91 21.48 1.64l.79-8.12c-7.52-.73-14.79-1.28-21.85-1.66l-.42 8.14zM1994.8 549.74c-.01.03-1.71 2.92-6.42 6.74l5.14 6.33c5.64-4.59 7.94-8.29 8.34-8.99l-7.06-4.08zM1652.94 530.19c6.89 1.39 13.93 2.91 21.14 4.56l1.82-7.94c-7.27-1.67-14.39-3.2-21.35-4.6l-1.61 7.98zM1610.33 522.93c6.93.94 14.08 2.04 21.35 3.3l1.38-8.04c-7.39-1.26-14.62-2.38-21.62-3.34l-1.11 8.08zM1695.12 539.83c6.85 1.73 13.82 3.58 20.93 5.54l2.17-7.86c-7.17-1.98-14.2-3.83-21.09-5.58l-2.01 7.9zM1739.21 543.51l-2.31 7.81c4.32 1.28 8.68 2.6 13.09 3.95l7.72 2.34 2.31-7.81-7.64-2.31c-4.43-1.36-8.83-2.69-13.17-3.98zM1778.7 563.63c7.28 1.99 14.32 3.81 21.15 5.48l1.94-7.91c-6.77-1.66-13.75-3.46-20.95-5.43l-2.14 7.86z"/><ellipse cx="1266.42" cy="2748.59" fill="#3e4268" opacity=".2" rx="322.66" ry="50.26"/><path fill="#bac8e5" d="M1754.61 777.16s208.14-113.44 256.83-22S2671.07 2048.88 2702 2203.14s-444.12 372.33-444.12 372.33-320.8 275.92-421.24-52.48c-100.43-328.4 122.81-1563.41-82.03-1745.83z"/><path fill="#3e4268" d="M2608.16 1969.13c-66.75-70.14-134.14-140.11-177.19-228.04-13.93-28.45-25.28-58.13-34.57-88.39-8.37-27.28-18.81-53.35-35.41-76.76-33.81-47.7-85.76-78.5-129.25-116.26-107.14-93.01-203.39-198.29-291.99-308.93-36.65-45.76-71.96-92.59-106.1-140.26 46.83 424.27-76.51 1252.49 3.01 1512.5 100.44 328.4 421.24 52.48 421.24 52.48s475.05-218.07 444.12-372.33c-6.89-34.23-42.35-120.15-93.86-234.01z" opacity=".05"/><path fill="#bac8e5" d="m2203.17 2212.58 126.63 179.32s-221.85 260.67-330.83 99.18c-82.24-121.85 204.2-278.5 204.2-278.5z"/><path fill="#3e4268" d="M2221.2 2459.35c-19.76-1.9-39.73-7.33-55.03-20.57-13.16-11.4-20.82-27.6-24-44.5-7.18-38.23 3.18-79.2 18.3-114.27 7.79-18.07 17.56-35.35 29.7-50.88 4.21-5.38 8.87-10.54 13.85-15.35l-.86-1.21s-286.44 156.65-204.21 278.5c70.47 104.42 188.12 32.33 262.48-31.66-13.41.9-26.87 1.23-40.23-.06z" opacity=".2"/><path fill="#e1e6f4" d="M1774.24 701.89c130.8 8.74 796.29 1460.43 796.29 1460.43s-735.3-98.47-713.03 289.09c22.27 387.56 400.38 124.06 400.38 124.06s-194.22 244.94-382.08 88.2c0 0-753.99-1245.69-776.96-1441.83-22.97-196.14 178.35-553.17 675.4-519.95z"/><path fill="#f1f2ff" d="M2683.25 2206.99c-24.92-35.13-69.91-46.04-109.14-55.19-155.58-33.28-325.01-1.4-455.37 90.94-64 46.67-127.17 108.45-142.84 189.48-18.38 99.18 96.59 143.61 175.89 111.68 75.51-28.37 134.05-85.79 182.47-148.08l1.91-2.52s-1.83-2.5-1.83-2.49c-31.19-42.74-92.96-126.68-126.8-172.3 42.8-20.44 88.27-35.47 134.27-44.94 74.9-15.1 152.76-14.72 227.92-.15 45.66 8.88 124.16 30.56 99 91.63-49.11 111.02-300.86 249.28-410.86 310.43 70.85-32.74 139.71-69.76 206.9-109.79 64.95-40.88 275.49-166.8 218.48-258.7zm-357.73 185.95c-48.93 56.29-107.8 110.93-179 135.2-34.99 11.57-73.87 11.32-106.31-6.7-79.19-38.87-36.42-132.21 8.1-183.01 43.34-51.02 98.45-90.86 158.95-119.8 31.06 46.14 87.89 129.91 118.26 174.31z"/><path fill="#bac8e5" d="M1763.47 922.77c-39.1 25.12-78.32 49.96-117.64 74.5-5.96-9.66-11.93-19.3-17.92-28.92 14.17-31.31 28.16-62.79 41.96-94.46-24.02 15.57-48.07 31.02-72.18 46.37-6.05-9.55-12.12-19.09-18.21-28.6 38.98-25 77.85-50.3 116.6-75.87 6.18 9.64 12.35 19.29 18.49 28.97a7335.895 7335.895 0 0 1-41.95 95.32c24.26-15.42 48.47-30.96 72.64-46.6 6.09 9.73 12.16 19.5 18.21 29.29zM1801.23 1037.32c-8.95-14.99-17.93-29.94-26.97-44.84-7.95 5.01-15.91 10.01-23.88 15 7.96 13.14 15.89 26.32 23.78 39.53-7.43 4.6-14.85 9.2-22.29 13.78-7.87-13.18-15.78-26.33-23.72-39.44a8632.43 8632.43 0 0 1-25.95 16.12c8.95 14.78 17.85 29.61 26.72 44.49-7.73 4.73-15.46 9.45-23.2 14.15a7615.621 7615.621 0 0 0-44.35-73.52c39.4-24.44 78.7-49.16 117.89-74.18a7822.88 7822.88 0 0 1 45.06 74.47c-7.69 4.84-15.38 9.65-23.09 14.44zM1834.62 1040.18a8406.49 8406.49 0 0 1 18.89 32.01 8260.265 8260.265 0 0 1-76.34 70.59c33.18-10.21 66.35-20.5 99.5-30.87 6.39 11.04 12.76 22.1 19.11 33.19a7971.508 7971.508 0 0 1-75.09 73.43c32.51-11.25 65.01-22.6 97.48-34.04 6.16 10.91 12.3 21.85 18.42 32.81-46.1 12.99-92.23 25.84-138.38 38.56a7925.29 7925.29 0 0 0-20.54-36.27 7850.96 7850.96 0 0 0 67.56-66.68c-30.12 9.03-60.24 18.01-90.38 26.92-6.94-12-13.9-23.96-20.89-35.9 33.78-34.18 67.33-68.77 100.66-103.75zM1850.62 1353.48c-14.59-26.85-13.22-55.1 10.68-70.21 5.96 10.77 11.9 21.56 17.82 32.37-8.81 6.26-9.99 14.88-5.33 23.44 4.85 8.91 12.26 12.16 19.34 8.12 22.5-12.97-23.82-68.54 19.01-93.23 22.78-13.46 46.31-1.53 60.78 24.97 15.05 27.57 11.96 53.9-10.5 68.46a7054.54 7054.54 0 0 0-17.99-33.32c7.46-5.04 8.98-13.51 4.64-21.87-3.86-7.47-10.51-10.91-18.08-6.49-20.91 12.16 22.38 69.07-18.35 92.27-20.42 11.6-46.18 4.65-62.02-24.51zM2026.89 1383.84c-32.88 18.83-65.83 37.47-98.84 55.92 7.08 13.48 14.12 27 21.13 40.54-7.67 4.24-15.33 8.47-23 12.69a7366.4 7366.4 0 0 0-37.29-71.2c40.6-22.74 81.11-45.77 121.53-69.1 5.51 10.37 11 20.75 16.47 31.15zM2074.86 1537.04c-7.99-15.97-16.03-31.9-24.12-47.78-8.25 4.59-16.51 9.17-24.77 13.74 7.13 14.01 14.22 28.05 21.27 42.13-7.7 4.21-15.4 8.42-23.11 12.61-7.03-14.05-14.1-28.06-21.21-42.03-8.97 4.93-17.93 9.85-26.91 14.75 8.01 15.76 15.97 31.57 23.89 47.42-8.01 4.32-16.02 8.63-24.04 12.93-13.1-26.25-26.33-52.39-39.68-78.4 40.86-22.36 81.62-45.01 122.3-67.96 13.57 26.33 27.02 52.79 40.33 79.37-7.98 4.43-15.97 8.83-23.95 13.22zM2107.91 1542.06c16.74 33.64 33.28 67.48 49.61 101.51a8017.3 8017.3 0 0 1-24.14 12.92c-5.58-11.63-11.17-23.23-16.8-34.81a10698.85 10698.85 0 0 1-99.54 52.93 7689.71 7689.71 0 0 0-15.37-31.58c33.17-17.56 66.29-35.31 99.35-53.25-5.67-11.54-11.37-23.06-17.08-34.56 7.98-4.38 15.98-8.76 23.97-13.16zM2164.12 1657.33c16.27 34.09 32.34 68.37 48.19 102.84-8.11 4.23-16.21 8.44-24.32 12.65-5.41-11.78-10.85-23.54-16.31-35.27-33.37 17.46-66.8 34.72-100.29 51.79-4.95-10.68-9.93-21.34-14.92-31.98 33.42-17.18 66.78-34.55 100.08-52.11-5.51-11.7-11.04-23.37-16.6-35.02 8.06-4.3 16.11-8.59 24.17-12.9zM2234.59 1876.18c-7.34-16.58-14.72-33.12-22.15-49.62-8.43 4.31-16.87 8.62-25.31 12.91a7532.18 7532.18 0 0 1 19.53 43.75c-7.87 3.95-15.74 7.9-23.61 11.83a7808.71 7808.71 0 0 0-19.46-43.65c-9.16 4.63-18.32 9.24-27.49 13.84 7.35 16.37 14.66 32.79 21.92 49.25-8.18 4.05-16.37 8.09-24.55 12.12a7700.775 7700.775 0 0 0-36.43-81.43c41.74-20.98 83.4-42.26 124.98-63.83 12.48 27.36 24.83 54.83 37.05 82.43-8.16 4.14-16.32 8.28-24.48 12.4zM2294.72 1945.6c14.34 33.42 3.54 59.02-18.44 69.69-15.87 7.72-34.72 5.62-49.35-12.45-12.26 18.54-24.57 37-36.95 55.37-5.19-12.4-10.42-24.79-15.66-37.14 11.95-17 23.85-34.07 35.7-51.21-1.13-2.63-2.27-5.26-3.4-7.88-15.87 7.79-31.75 15.54-47.64 23.24-4.7-10.91-9.42-21.8-14.16-32.68 42.01-20.54 83.94-41.38 125.8-62.52 8.1 18.48 16.13 37 24.1 55.58zm-26.32 10.71c-2.94-6.84-5.88-13.68-8.83-20.5-10.4 5.18-20.81 10.33-31.22 15.47 2.94 6.81 5.87 13.62 8.79 20.44 5.3 12.36 13.69 15.26 23.58 10.41 9.36-4.58 13-13.42 7.68-25.82zM1423.7 961.09c12 2.65 241.4 400.37 241.4 400.37s-163.83 87.63-214.49 173.14c0 0-227.37-339.68-227.19-370.81.18-31.14 96.54-225.6 200.28-202.7zM1719.94 1461.3s-198.35 120.58-191.24 168.62c7.11 48.05 90.37 235.6 108.43 242.7 18.06 7.1 202.58-143.15 215.63-160.08 13.06-16.92-132.82-251.24-132.82-251.24zM1892.73 1804.96l123.81 268.43-48.17 22.79s-122.73-224.31-119.56-242.07c3.16-17.76 43.92-49.15 43.92-49.15zM1797.08 1865.46l65.04 140.86-48.27 16.43s-43.91-127.68-42.95-133.19c.95-5.51 26.18-24.1 26.18-24.1zM1671.39 1942.44s115.55 280.39 138.12 272.6c22.57-7.79 33.55-46.54 33.55-46.54s-102.57-231.32-129.56-243.49c-26.99-12.18-42.11 17.43-42.11 17.43z"/><path fill="#efd9d3" d="M1185.08 2662.15s-1.07-42.07 3.94-76.98c1.64-11.43 46.99-5.38 47.49 2.1 1.94 29.14-4.34 75.21-13.74 85.47-9.4 10.27-32.09 8.85-37.69-10.59z"/><path fill="#575e84" d="m1081.32 2713.06-6.62 1.24s-2.39 9.41.55 13.72c2.94 4.31 30.56 14.84 84.38 13.39 53.81-1.44 78.5-11.74 77.34-22.79-1.16-11.05-132.53 20.38-155.65-5.56z"/><path fill="#3e4268" d="M1236.97 2718.63c-71.23 26.82-178.18 5.86-160.54-7.28 3.88-2.89 10.65-5.35 18.86-7.7 29.19-8.28 76.72-14.82 77.99-31.79 1.63-21.74 11.58-24.87 13.87-24.06.58.22 2.17.95 4.36 1.81 6.41 2.51 18.05 6.05 25.21.4 9.63-7.57 11.04-8.43 15.28-3.42 12.4 14.7 12.06 27.09 4.97 72.04z"/><path fill="#575e84" d="M1191.73 2644.31c-.97 5.08-2.9 10.85-5.17 15.57-5.71 11.82 1.94 18.51-15.1 39.62-17.02 21.1-78.02 5.56-76.18 4.15 29.19-8.28 76.94-20.11 78.21-37.08 1.63-21.74 11.58-24.87 13.87-24.06.59.2 2.17.94 4.37 1.8z"/><path fill="#3e4268" d="M1406.06 1219.33c-.84 8.8-1.68 17.92-2.5 27.37-23.35 259.64-37.36 665.82-125.15 1196.25-9.7 58.91-20.42 119.39-32.08 181.35-3.45 18.53-65.71 1.6-65.71 1.6 5.8-276.28-97.89-904.13-150.3-1201.34-15.28-87.07-26.22-145.8-28.73-158.99a82.9 82.9 0 0 0-.48-2.83l404.95-43.41z"/><path fill="#3e4268" d="M1406.06 1219.33c-.84 8.8-1.68 17.92-2.5 27.37-23.35 259.64-37.36 665.82-125.15 1196.25-8.23-34.26-16.46-68.51-24.61-102.85-24.07-100.75-47.81-201.59-71.47-302.52-11.78-50.02-23.65-100.11-35.34-150.13-11.52-49.45-17.31-100.1-21.22-150.72-3.82-49.97-5.85-100.06-9.99-150.01-1.71-20.28-4.48-40.52-5.46-60.82-.83-17.37-1.26-35.08-5.33-52.04-3.35-14.22-9.47-28.46-21.87-37.09-10.74-7.38-23.92-11.2-36.79-12.27-5.13-.53-10.58-.47-16.01.06-.97.11-2.03.21-3 .32-13.83-87.43-23.54-145.95-25.73-159.3a82.9 82.9 0 0 0-.48-2.83l404.95-43.42z" opacity=".2"/><path fill="#efd9d3" d="M1351.4 2683.83s-27.26-88.11-15.06-95.04c12.2-6.93 41.69-11.2 48.9-5.64 7.2 5.56 10.79 100.89.07 113.97-10.72 13.08-25.82 9.92-33.91-13.29z"/><path fill="#3e4268" d="M1258.33 2737.86s-.43 13.16 11.35 18.76c29.24 13.89 124.7-4.13 129.18-13.08 4.49-8.95 2.56-20.12 2.56-20.12l-143.09 14.44z"/><path fill="#3e4268" d="M1354.62 2661.26s24.77-.01 35.89-4.38c10.12-3.98 18.68 60.35 10.42 71.45-8.27 11.1-82.11 18.18-82.11 18.18s18.15-30.56 22.23-55.99c4.08-25.44-9.27-23.98 13.57-29.26z"/><path fill="#575e84" d="M1258.33 2737.86s28.98 20.44 71.99 7.21c13.58-4.18 25.44-69.5 18.68-82.45-6.76-12.95-18.67.4-18.67.4s6.51 62.68-72 74.84z"/><path fill="#575e84" d="M1334.02 2740.82s-20.36-20.4-44.67-20.34c-24.31.06-31.03 17.39-31.03 17.39s20.99 28.68 75.7 2.95zM1436.61 1229.23c-.05 4.47-.11 8.94-.16 13.58-.11 5.45-.14 11.14-.16 16.83-.07 10.4-.14 20.97-.12 31.78.02 3.98.03 8.04.05 12.11.03 7.72.05 15.44.16 23.4.15 26.25.57 53.7 1.11 82.38 3.7 212.5 12.87 489.14-5.61 831.96-6.42 120.1-16.31 248.33-30.95 384.81-1.98 18.74-67.92 14-67.92 14-15.32-262.44-159.62-829.57-241.21-1133.46-30.65-114.33-52.44-191.4-55.19-200.93-.18-.73-.27-1.05-.27-1.05l400.27-75.41z"/><path fill="#3e4268" d="M1327.19 1472.71c-56.79-25.64-130.78-90.46-146.28-72.7-15.5 17.76-13.67 27.85-13.67 27.85s138.85 74.9 152.23 71.61c13.38-3.3 7.72-26.76 7.72-26.76z"/><path fill="#3e4268" d="M1436.61 1229.23c-.05 4.47-.11 8.94-.16 13.58-.11 5.45-.14 11.14-.16 16.83-.07 10.4-.14 20.97-.12 31.78.02 3.98.03 8.04.05 12.11.1 7.64.13 15.44.16 23.4.3 25.83.65 53.38 1.11 82.38 3.7 212.5 12.87 489.14-5.61 831.96-2.55-4.49-5.02-9.06-7.32-13.64-22.05-44.65-30.76-95.39-27.82-144.95 1.9-32.06 8.53-63.51 9.21-95.79.61-31.71-3.73-63.21-14.54-93.18-11.15-30.85-29.3-58.69-42.46-88.68-11.36-25.89-18.68-52.86-20.42-81.17-1.4-24.02 1.36-47.65 3.95-71.53 2.06-19.07 3.79-38.12 4.78-57.33 2.1-40.6 1.64-83.01-10.04-122.3-10.53-35.18-31.86-67.08-67.84-79.7-21.56-7.6-46.62-9.02-68.94-4.5-22.56 4.53-42.43 16.31-57.86 33.34-21.29 23.43-33.23 53.71-40.76 84.78-1.11 4.5-2.05 9.07-3 13.64-29.22-122.24-49.67-204.47-52.19-214.57-.18-.73-.27-1.05-.27-1.05l400.25-75.41z" opacity=".2"/><path fill="#337ccc" d="M1469.4 1290.87c-27.05 51.53-481.02 89.78-484.45 15.98-9.37-202.02 31.44-822.47 265.36-834.7 177.4-9.28 318.16 630.01 219.09 818.72z"/><path fill="#ebc0b8" d="M1495.01 715.06s145.36 266.86 68.62 332.56c-45.55 39-153.96-230.53-153.96-230.53l85.34-102.03z"/><path fill="#4a97dd" d="M1308.62 492.2s218.6 161.51 259.83 307.5c-34.15 24.87-99.25 47.77-150.28 53.84-151.69-242.63-109.55-361.34-109.55-361.34z"/><path fill="#3e4268" d="M1256.88 212.21s39.74-19.46 56.92 14.26 1.19 49.04 1.19 49.04 16.8 5.39 8.23 39.32c-8.58 33.94-41.26 35.14-41.26 35.14s24.07 53.91-27.8 55.81c-51.88 1.9-127.6-126.4 2.72-193.57z"/><path fill="#efd9d3" d="M1180.48 415.29s-.9 125.39 20.97 122.5c17.15-2.27 71.63-63.02 71.63-63.02l-22.35-134.9-70.25 75.42z"/><path fill="#231f20" d="M1230.46 372.32c2.34 5.02 2.07 11.62 1.8 17.01-.77 15.43-4.71 30.62-15.66 42.04-5.64 5.88-12.11 10.89-17.67 16.85-5.97 6.39-10.12 13.74-13 21.97-.35 1.01-.57 2.05-.9 3.06l-4.55-57.96 39.76-42.69c3.5-2.31 7.91-5.21 10.22-.28z" opacity=".1"/><path fill="#efd9d3" d="m1107.31 359.92 13.42 2.85s-.96 2.48-2.18 6.52c-4.53 15.43-12.22 53.69 17.66 69.3 27.95 14.58 73.43-17.71 95.2-35.47 7.69-6.29 12.43-10.77 12.43-10.77l9.91-47.82s20.72-14.45 14.26-33.75c-6.4-19.3-17.61-7.89-17.61-7.89s-44.29-91.04-118.73-50.74c0 0-10.28 35.2-11.16 65.39.02-.02-15.88 30.54-13.2 42.38z"/><path fill="#3e4268" d="M1153.8 278.07c-11.58-1.63-20.36 7.01-20.78 7.43a3.057 3.057 0 0 0 0 4.31 3.07 3.07 0 0 0 4.32.01c.36-.36 8.89-8.63 18.99-4.81 1.57.62 3.34-.19 3.94-1.77a3.05 3.05 0 0 0-1.77-3.94 20.82 20.82 0 0 0-4.7-1.23z"/><path fill="#3e4268" d="M1250.39 302.84s-10.67 32.02-21.98 33.48c-11.31 1.47-20.48-49.12-29.11-61.21 0 0-78.31 14.61-95.31-41.35-17.01-55.95 27.87-38.78 27.87-38.78s5.31-46.84 31.02-30.13c35.12 22.83 49.38 6.74 70.07 8.62 20.69 1.88 39.27 26.04 34.03 49.98 0 0 27.21 52.53-16.59 79.39z"/><path fill="#3e4268" d="M1261.28 321.72c.5-.01.98-.33 1.16-.83 5.02-13.41-5.88-17.89-5.99-17.93-.66-.26-1.39.06-1.65.71-.26.66.06 1.4.71 1.66.36.15 8.66 3.65 4.54 14.67a1.273 1.273 0 0 0 1.23 1.72z"/><path fill="#e5c9c3" d="M1144.39 358.16c2.32 7.74 12.07 11.67 21.77 8.76s15.69-11.54 13.37-19.28c-2.32-7.74-12.07-11.66-21.77-8.75-9.71 2.89-15.69 11.52-13.37 19.27z"/><path fill="#3e4268" d="M1118.39 401.56c.14 6.07 6.43 10.86 14.04 10.68 7.61-.18 13.67-5.25 13.53-11.32-.14-6.08-6.43-10.86-14.04-10.68-7.61.18-13.67 5.24-13.53 11.32zM1132.56 308.69c.12 4.77 3.59 8.55 7.77 8.45 4.14-.1 7.43-4.04 7.31-8.82-.02-.84-.16-1.63-.42-2.38-.74.74-1.76 1.24-2.88 1.27a4.094 4.094 0 0 1-4.2-4c-.03-1.27.5-2.4 1.39-3.18a7.33 7.33 0 0 0-1.63-.16c-4.17.11-7.46 4.05-7.34 8.82z"/><path fill="#ebc0b8" d="M924.28 774.88s.78-40.05 11.77-41.82c10.99-1.77 8.02 41.34 8.02 41.34l-19.79.48z"/><path fill="#bac8e5" d="M927.31 710.59c5.63 56.72 10.95 110.26 15.96 160.86.26 2.58 2.53 4.92 5.09 5.27 83.88 11.16 178.91 15.69 287.65 12.15 3.78-.13 7.05-2.76 7.27-5.9 4.25-62.19 8.8-128.87 13.7-200.53.14-2.08-.7-3.94-2.17-5.21l-.02-.02c-1.29-1.13-3.04-1.81-5.03-1.81-121.77.86-227.62 11.12-318.1 28.67-1.22.23-2.27.97-3.03 1.95-.17.2-.32.42-.44.63-.03.05-.04.07-.04.07a6.53 6.53 0 0 0-.84 3.87z"/><path fill="#d3daea" d="M928.16 706.72s156.02 190.4 326.66-29.49l-.02-.02c-1.29-1.13-3.04-1.81-5.03-1.81-121.77.86-227.62 11.12-318.1 28.67-1.22.23-2.27.97-3.03 1.95-.23.32-.36.53-.44.63-.03.05-.04.07-.04.07z"/><path fill="#9aaccc" d="M931.66 704.07c-1.41.21-2.76 1.22-3.59 2.56l-.07.1.06.08c17.35 21 38.63 39.07 62.85 53.45 61.98 37.36 138.81 36.06 205.53-20.39 22.02-17.51 40.94-39.6 58.5-62.57l.08-.11c-1.38-1.2-3.32-1.86-5.27-1.8 1.9.04 3.68.75 4.94 1.94l-.02-.19c-77.58 96.79-169.99 132.58-262.27 80.1-24.31-13.56-45.92-30.84-64.17-50.62v.18s.08-.13.04-.07c.79-1.35 2-2.35 3.39-2.66z"/><path fill="#bac8e5" d="M1123.38 782.68s-41.67-32.24-92.78.8c.01 0 36.87 36.46 92.78-.8z"/><path fill="#9aaccc" d="M1233.14 881.82c-40.79-54.56-103.28-117.85-159.19-117-28.62 1.72-53.31 19.39-74.1 39.42-19.97 19.55-37.25 42.19-51.81 66.78 15.8-22.85 33.7-44.3 53.93-62.94 20.47-18.45 44.8-35.58 72.13-36.92 53.69-.78 116.35 61.01 159.04 110.66z"/><path fill="#efd9d3" d="M924.28 774.88s76.14-14.52 80.45-.65c2.01 6.48-16.06 12.34-36.02 16.95 24.62-4.75 52.2-6.83 51.02.95-.91 5.99-30.24 12.47-49.93 17.85 13.83-2.45 45.01-6.91 46.78-1.04 2.26 7.47-26.44 15.81-45.58 19.09 11.53-1.17 32.08-2.56 32.87 2.99.7 4.91-4.34 10.08-28.43 14.12-14.06 2.36-13.16 4.97-19.76 4.79-5.09-.14-10.39.28-14.44-1.86-19.48-10.28-26.7-66.01-16.96-73.19z"/><path fill="#fff" d="M1002.08 832.16c-.81-2.51-9.12-3.01-9.86-2.43 0 0 .83 6.71 1.5 7.79.65 1.08 9.17-2.86 8.36-5.36zM1015.76 809.62c-.81-2.51-9.12-3.01-9.87-2.43 0 0 .84 6.71 1.5 7.79.67 1.08 9.18-2.85 8.37-5.36zM1017.5 791.21c-.81-2.51-9.12-3.01-9.86-2.43 0 0 .84 6.72 1.5 7.79.66 1.08 9.17-2.85 8.36-5.36zM1001.97 773.78c-.81-2.51-9.12-3.01-9.86-2.43 0 0 .83 6.72 1.5 7.79.66 1.08 9.18-2.85 8.36-5.36z" opacity=".2"/><path fill="#ebc0b8" d="M937.92 838.39c.16-.02.31-.08.43-.2.31-.29.33-.78.04-1.09-11.7-12.69-7.11-25.71-7.06-25.84.07-.2.06-.43-.04-.62-5.95-11.55-.36-22.49-.31-22.6.2-.38.05-.84-.32-1.04a.772.772 0 0 0-1.04.32c-.25.47-5.93 11.59.16 23.74-.66 2.2-3.79 14.85 7.48 27.08.18.19.42.27.66.25zM953.68 794.57c9.92-1.16 22.36-4.37 22.98-4.53a.771.771 0 0 0-.39-1.49c-.18.05-17.94 4.63-27.83 4.89a.77.77 0 0 0 .04 1.54c1.58-.05 3.34-.2 5.2-.41zM958.87 812.44c8.82-1.03 18.03-3.09 18.15-3.12.41-.09.68-.51.58-.92a.744.744 0 0 0-.92-.58c-.15.04-15.12 3.39-25.03 3.64-.44.01-.76.36-.75.79.01.43.37.76.79.75 2.22-.06 4.68-.26 7.18-.56zM961.94 830.49c8.54-1 17.09-2.99 17.2-3.01.42-.1.67-.51.57-.93a.764.764 0 0 0-.93-.57c-.14.03-14.02 3.26-23.93 3.51a.77.77 0 0 0 .04 1.54c2.23-.05 4.64-.26 7.05-.54z"/><path fill="#efd9d3" d="M1537.13 941.09c-68.27-71.1-256.77-134.26-256.77-134.26l-32.52 43.24s171.14 208.9 262.02 209.8c112.23 1.1 57.01-87.81 27.27-118.78z"/><path fill="#efd9d3" d="M1268.06 781.23c7.24 8.18 13.34 19.66 12.3 25.6.54 3.84 24.73 27.73 32.09 34.78l-27.48 42.06-36.52-32.42s-9.56-3.57-25.24-11.27c-15.68-7.7-75.61-38.84-69.53-44.69 6.08-5.85 39.17 11.86 39.17 11.86s-48.16-36.53-40.97-42.51c7.19-5.99 49.79 24.74 49.79 24.74s-51.47-41.68-48.18-51.22c3.29-9.54 58.07 37.25 58.07 37.25s-40.23-48.04-33.49-54.38c6.73-6.34 47.18 42.32 57.69 50.52 6.82 5.32 14.73 3.42 12.51-5.37-2.21-8.79 6.62-24.47 13.28-23.31 6.66 1.17-.73 30.19 6.51 38.36z"/><path fill="#fff" d="M1263.27 757.97s-3.81.52-5.02-.87c-1.21-1.39 2.61-12.14 4.13-11.73 1.53.42 1.85 12.09.89 12.6zM1186.87 725.97s-2.76 3.23-5.04 3.81c-2.28.58-3.84-6.2-2.73-7.52 1.13-1.32 5.57-.06 7.77 3.71zM1162.68 741.19c-.01 1.59-1.57 4.46-3.85 5.04-2.28.58-5.28-6.51-4.16-7.84 1.11-1.32 8.02.45 8.01 2.8zM1160.64 767.91c-.01 1.59-1.22 3.85-3.5 4.43-2.28.58-5.63-5.91-4.51-7.23 1.11-1.32 8.02.45 8.01 2.8zM1162.08 796.89c-.01 1.58-.17 4.03-2.45 4.61-2.28.58-6.14-4.97-5.02-6.29 1.11-1.32 7.49-.67 7.47 1.68z" opacity=".5"/><path fill="#bac8e5" d="M644.55 1874.78c-6.45-.36-12.54-2.02-18.13-4.96-15.42-7.86-24.92-24.42-23.94-42.05l14.13-254.73c1.36-24.53 22.45-43.37 47.01-42.01l254.67 14.13c24.56 1.36 43.43 22.42 42.07 46.95l-14.13 254.73c-.56 10.12-4.35 19.42-10.96 26.89-8.78 10.3-22.02 15.95-36.05 15.17l-254.67-14.12z"/><path fill="#f1f2ff" d="m937.23 1590.83-14.13 254.73c-.28 4.97-2.15 9.4-5.18 12.82-4.16 4.88-10.47 7.77-17.41 7.39l-254.67-14.13c-3.12-.17-6.04-.97-8.63-2.34-7.28-3.71-12.07-11.52-11.58-20.25l14.13-254.73c.65-11.8 10.73-20.81 22.59-20.16l254.67 14.13c11.85.67 20.86 10.74 20.21 22.54z"/><path fill="#d3daea" d="m703.39 1748.14-29.27-57.89c-4.76-9.42-17.94-10.15-23.72-1.31l-18.58 28.43-6.2 111.69c-.48 8.73 4.3 16.54 11.58 20.25 2.59 1.36 5.51 2.16 8.63 2.34l113.08 6.27-55.52-109.78zM904.97 1743.48l-25.48 38.97-51.86 79.28 72.88 4.04c6.94.39 13.25-2.51 17.41-7.39 3.03-3.43 4.9-7.85 5.18-12.82l5.59-100.76c-4.77-9.42-17.94-10.15-23.72-1.32z"/><path fill="#bac8e5" d="m879.48 1782.45-75.86-150.06c-4.76-9.42-17.94-10.15-23.72-1.32l-76.52 117.06-66.18 101.17c2.59 1.36 5.51 2.16 8.63 2.34l254.67 14.13c6.94.39 13.25-2.51 17.41-7.39l-38.43-75.93z"/><path fill="#d3daea" d="M904.2 1619.05c-.96 17.37-15.83 30.67-33.19 29.7-17.37-.96-30.67-15.82-29.7-33.19s15.83-30.67 33.19-29.7c17.36.96 30.66 15.82 29.7 33.19z"/><path fill="#e1e6f4" d="M1333.88 2126.51s-116.38 39.83-53.15 196.59c0 0 141.71-80.33 53.15-196.59z"/><path fill="#fff" d="m1282.83 2318.61 16.49-47.35c5.41-15.79 10.8-31.58 15.78-47.49 2.53-7.94 4.98-15.9 7.24-23.91 2.33-7.99 4.47-16.03 6.42-24.11 1.9-8.09 3.65-16.22 4.79-24.44 1.19-8.2 1.83-16.55.32-24.8 1.23 3.99 2.02 8.19 2.14 12.4.26 4.21.15 8.43-.1 12.64-.6 8.41-1.87 16.74-3.47 24.99-3.21 16.51-7.75 32.69-12.74 48.69-5.1 15.97-10.7 31.76-16.86 47.33-6.09 15.6-12.74 30.97-20.01 46.05z" opacity=".52"/><path fill="#f1f2ff" d="M904.38 2559.71s33.55 118.34 193.47 63.59c0-.01-72.64-145.81-193.47-63.59z"/><path fill="#fff" d="m1093.48 2620.95-46.4-19c-15.48-6.25-30.96-12.47-46.58-18.3-7.79-2.96-15.61-5.82-23.49-8.51a538.12 538.12 0 0 0-23.74-7.7c-7.98-2.33-16-4.51-24.15-6.09-8.12-1.63-16.43-2.71-24.75-1.65 4.05-1.01 8.29-1.58 12.5-1.47 4.22-.04 8.43.31 12.62.77 8.36 1.05 16.62 2.76 24.77 4.8 16.31 4.08 32.23 9.49 47.93 15.33 15.67 5.95 31.14 12.39 46.36 19.37 15.26 6.92 30.26 14.38 44.93 22.45z" opacity=".52"/><path fill="#f1f2ff" d="M1571.29 2477.65s-132.7-49.78-191.25 135.97c.01 0 184.91 32.32 191.25-135.97z"/><path fill="#fff" d="m1385.21 2611.17 49.35-30.05c16.38-10.08 32.73-20.19 48.81-30.69 8.07-5.21 16.08-10.5 23.95-15.97 7.93-5.4 15.72-10.99 23.37-16.75 7.61-5.81 15.12-11.76 22.16-18.23 7.07-6.42 13.74-13.39 18.44-21.83-1.83 4.45-4.2 8.77-7.18 12.6-2.85 3.94-6.05 7.61-9.34 11.18-6.69 7.04-13.92 13.53-21.39 19.7-14.94 12.34-30.83 23.4-46.99 33.98-16.23 10.47-32.78 20.42-49.66 29.76-16.84 9.4-34.01 18.21-51.52 26.3z" opacity=".52"/><path fill="#d3daea" d="m1122.62 2513.34-135.03-156.22-40.79 53.93zM1443.1 2425.9l88.22-78.62-31.21-22.87z"/><path fill="#f1f2ff" d="M1158.33 2378.71c0 11.93-9.67 21.6-21.6 21.6-11.93 0-21.6-9.67-21.6-21.6 0-11.93 9.67-21.6 21.6-21.6 11.93.01 21.6 9.68 21.6 21.6zM1341.8 2458.2c0 12.69-10.29 22.97-22.97 22.97s-22.97-10.28-22.97-22.97 10.29-22.97 22.97-22.97 22.97 10.29 22.97 22.97z"/><path fill="#bac8e5" fill-rule="evenodd" d="M866.8 798.86s-22.43 116.57 84.11 137.39c-.01 0-128.97 18.41-84.11-137.39z" clip-rule="evenodd"/></svg>