<svg xmlns="http://www.w3.org/2000/svg" data-name="Layer 1" viewBox="0 0 700 550"><path fill="#efedef" d="M251.76176,355.02916c-24.68321-26.92431-51.02458-79.52139-32.68942-129.55395,1.89037-5.1584,19.89714-52.25757,59.72038-61.09984,48.5051-10.77,71.02155,48.1729,126.57233,46.11261,60.15839-2.23117,81.16461-73.11592,112.528-64.54926,37.08642,10.12989,64.97161,124.88408,16.09088,195.31581C475.09842,426.102,318.13242,427.42589,251.76176,355.02916Z"/><path fill="#efedef" d="M387.73105,424.75328c-61.85156.001-119.585-21.92773-153.68457-59.12305-24.10351-26.293-59.02246-86.81933-37.00781-146.8916l1.877.6875c-21.6836,59.1709,12.80664,118.89258,36.60546,144.85254,36.94239,40.2959,102.02149,62.46973,169.81934,57.87891,63.708-4.31738,117.06543-31.02735,146.3916-73.28321,36.39258-52.4375,34.61817-126.78613,17.56934-173.6748-9.00782-24.77441-21.81153-41.07031-35.12891-44.707l.52734-1.92969c13.95118,3.81055,27.249,20.55957,36.48145,45.95313C588.4,221.8734,590.17246,296.99352,553.37461,350.015c-29.67383,42.75781-83.58106,69.7793-147.89844,74.1377Q396.56553,424.75621,387.73105,424.75328Z"/><path fill="#8b9d36" d="M162.068,426.25035l-.8418-.50586c.23633-.39355,23.708-39.50781,27.36231-49.2539l.91992.3457C185.82188,386.66539,163.03574,424.639,162.068,426.25035Z"/><path fill="#8b9d36" d="M181.09354 355.98054a42.1924 42.1924 0 012.26874 7.60423 71.09275 71.09275 0 011.15954 7.70979 69.67587 69.67587 0 01.31938 7.78963 41.621 41.621 0 01-.80085 7.89615 41.65947 41.65947 0 01-2.274-7.60381 69.787 69.787 0 01-1.15427-7.71027 71.08872 71.08872 0 01-.31411-7.79011A42.1548 42.1548 0 01181.09354 355.98054zM172.431 367.8248a40.24374 40.24374 0 012.94394 7.1697 67.58855 67.58855 0 011.84961 7.37986 66.55667 66.55667 0 011.021 7.539 39.80388 39.80388 0 01-.0844 7.75121 39.7672 39.7672 0 01-2.94922-7.16868 66.5568 66.5568 0 01-1.84433-7.38094 67.70024 67.70024 0 01-1.01568-7.54A40.28244 40.28244 0 01172.431 367.8248zM167.65809 381.61362a34.14721 34.14721 0 012.50611 6.66419 56.72721 56.72721 0 011.40219 6.82173 55.77523 55.77523 0 01.56731 6.9409 33.7153 33.7153 0 01-.54669 7.09992 33.7172 33.7172 0 01-2.51138-6.66348 55.68249 55.68249 0 01-1.39692-6.82244 56.72851 56.72851 0 01-.562-6.94168A34.1141 34.1141 0 01167.65809 381.61362zM161.64745 395.377a26.14119 26.14119 0 012.54112 5.6713 42.60064 42.60064 0 011.44248 5.86095 41.8128 41.8128 0 01.61142 6.00446 25.83806 25.83806 0 01-.49729 6.19592 25.8181 25.8181 0 01-2.54639-5.67039 41.88125 41.88125 0 01-1.43768-5.86186 42.66871 42.66871 0 01-.60615-6.00536A26.14125 26.14125 0 01161.64745 395.377zM156.34415 403.97954a23.53534 23.53534 0 012.68258 4.97961 40.582 40.582 0 011.68657 5.16568 46.36961 46.36961 0 011.01855 5.29743c.1103.89915.21148 1.79326.27862 2.70464a20.12645 20.12645 0 00.29636 2.76938 5.436 5.436 0 01-.65218-.41169l-.52942-.5305a9.78973 9.78973 0 01-.926-1.15822 18.55218 18.55218 0 01-1.42377-2.47794 27.59288 27.59288 0 01-1.86831-5.225 30.92659 30.92659 0 01-.87949-5.44045A20.4809 20.4809 0 01156.34415 403.97954zM186.24435 382.74469a33.83238 33.83238 0 015.97515-5.18132 55.37126 55.37126 0 016.60431-3.93822 54.4003 54.4003 0 017.081-2.99734 33.446 33.446 0 017.7159-1.74238 33.43656 33.43656 0 01-5.97179 5.18726 54.40464 54.40464 0 01-6.60767 3.93228 55.34883 55.34883 0 01-7.08386 2.99141A33.83015 33.83015 0 01186.24435 382.74469zM180.37518 393.70724a41.67712 41.67712 0 017.36967-4.82442 69.39006 69.39006 0 017.85977-3.52 68.14856 68.14856 0 018.23045-2.533 41.20225 41.20225 0 018.72487-1.21619 41.21083 41.21083 0 01-7.36679 4.83065 68.15984 68.15984 0 01-7.86217 3.51381 69.37457 69.37457 0 01-8.23285 2.52673A41.67716 41.67716 0 01180.37518 393.70724zM173.46636 405.89251a35.54187 35.54187 0 016.64315-4.65783 58.40734 58.40734 0 017.15-3.35982 57.37031 57.37031 0 017.5332-2.37747 35.1306 35.1306 0 018.04439-1.06706 35.14276 35.14276 0 01-6.64076 4.664 57.38073 57.38073 0 01-7.15244 3.35365 58.4143 58.4143 0 01-7.53559 2.3713A35.54048 35.54048 0 01173.46636 405.89251zM168.00624 415.27154a26.64453 26.64453 0 015.83464-3.84314 42.553 42.553 0 016.25089-2.51336 41.78923 41.78923 0 016.56643-1.5071 26.36179 26.36179 0 016.98651-.16466 26.36064 26.36064 0 01-5.83272 3.84944 41.78688 41.78688 0 01-6.25329 2.50706 42.53285 42.53285 0 01-6.56787 1.50069A26.65834 26.65834 0 01168.00624 415.27154z"/><path fill="#8b9d36" d="M163.69608 423.68722a35.04548 35.04548 0 016.41345-4.873 57.5168 57.5168 0 016.96685-3.59432 56.51481 56.51481 0 017.386-2.62671 34.65132 34.65132 0 017.94464-1.33578 34.63911 34.63911 0 01-6.41058 4.87915 56.49362 56.49362 0 01-6.96972 3.58832 57.50565 57.50565 0 01-7.38838 2.62048A35.04393 35.04393 0 01163.69608 423.68722zM188.15151 378.078a24.66611 24.66611 0 01.19134-7.87637 37.11311 37.11311 0 012.0069-7.16538 36.5035 36.5035 0 013.38224-6.62686 24.4203 24.4203 0 015.216-5.90909 24.40586 24.40586 0 01-.18223 7.87973 36.53659 36.53659 0 01-2.01554 7.162 37.11644 37.11644 0 01-3.39135 6.62343A24.67055 24.67055 0 01188.15151 378.078z"/><path fill="#50661a" d="M158.4625,427.85582l-.98242-.01562c.04394-2.6836,1.209-65.95411,13.86523-85.99317l.83008.52539C159.66563,362.17906,158.47324,427.20152,158.4625,427.85582Z"/><path fill="#50661a" d="M167.69358 350.885a45.0083 45.0083 0 00.29444-8.85674 79.62539 79.62539 0 00-.95718-8.5915c-.45844-2.83322-1.08233-5.63826-1.816-8.42-.73275-2.80007-1.65827-5.49411-2.6471-8.36365a12.27229 12.27229 0 00-.63348 2.202 19.62429 19.62429 0 00-.34623 2.2375 37.91663 37.91663 0 00-.19949 4.44168 57.02936 57.02936 0 00.7994 8.705 63.26544 63.26544 0 002.0141 8.47586A39.85189 39.85189 0 00167.69358 350.885zM183.25054 310.81941a31.82182 31.82182 0 00-5.5402 7.11838 50.02764 50.02764 0 00-3.71313 7.80216 49.16006 49.16006 0 00-2.33059 8.31972 31.47878 31.47878 0 00-.48626 9.01 31.47781 31.47781 0 005.54883-7.11515 49.11546 49.11546 0 003.7045-7.80545 50.02705 50.02705 0 002.322-8.32295A31.80553 31.80553 0 00183.25054 310.81941zM193.68068 326.94451a73.30708 73.30708 0 00-7.29582 6.72253c-2.25483 2.33743-4.40656 4.72713-6.51176 7.12977l-6.25473 7.178c-1.04925 1.17543-2.10952 2.33366-3.22974 3.43074a14.7477 14.7477 0 01-3.81671 2.88321 6.625 6.625 0 002.61209-.06623 12.22957 12.22957 0 002.51666-.79156 24.30415 24.30415 0 004.48232-2.57007 43.99212 43.99212 0 007.38357-6.83071 58.28773 58.28773 0 005.86725-8.01538A41.71569 41.71569 0 00193.68068 326.94451zM193.68068 343.06962a60.38172 60.38172 0 00-9.06967 5.57821 102.75223 102.75223 0 00-8.13742 6.61366 101.01451 101.01451 0 00-7.432 7.39731 59.70051 59.70051 0 00-6.49066 8.44259 59.6788 59.6788 0 009.07446-5.57329 100.93241 100.93241 0 008.1331-6.61858 102.74216 102.74216 0 007.42722-7.40222A60.37291 60.37291 0 00193.68068 343.06962zM192.61992 355.7215a59.70578 59.70578 0 00-9.16317 5.29911 101.54187 101.54187 0 00-8.25875 6.35848 99.79681 99.79681 0 00-7.57348 7.16017 59.03507 59.03507 0 00-6.65946 8.22956 59.00728 59.00728 0 009.168-5.294 99.73071 99.73071 0 008.254-6.36352 101.53749 101.53749 0 007.56916-7.1652A59.67792 59.67792 0 00192.61992 355.7215zM191.91307 369.24519a55.50953 55.50953 0 00-9.17852 4.45265 94.003 94.003 0 00-8.34507 5.569 92.43879 92.43879 0 00-7.714 6.41405 54.85312 54.85312 0 00-6.87238 7.54117 54.90289 54.90289 0 009.18235-4.44731 92.433 92.433 0 008.34123-5.57443 94.06394 94.06394 0 007.70967-6.41939A55.50864 55.50864 0 00191.91307 369.24519zM192.61992 379.05647a61.75745 61.75745 0 00-9.6034 4.876 105.19609 105.19609 0 00-8.76083 5.98576 103.347 103.347 0 00-8.12352 6.82568 61.033 61.033 0 00-7.27232 7.9459 61.03682 61.03682 0 009.60723-4.87069 103.349 103.349 0 008.757-5.99109 105.17989 105.17989 0 008.1192-6.831A61.754 61.754 0 00192.61992 379.05647zM195.09486 388.249a80.50994 80.50994 0 00-10.03835 5.57125c-3.18706 2.04024-6.27055 4.19706-9.27682 6.44817-3.01491 2.238-5.94638 4.57121-8.82606 6.98213-2.9094 2.39024-5.65768 4.87975-8.6678 7.34522a24.27139 24.27139 0 005.62077-1.64029 54.96467 54.96467 0 005.21938-2.51277 85.6655 85.6655 0 009.59189-6.24177 98.90237 98.90237 0 008.71384-7.35337A62.64332 62.64332 0 00195.09486 388.249zM198.10018 397.79517a82.79578 82.79578 0 00-10.90057 5.18012c-3.481 1.93922-6.85944 4.02141-10.16015 6.21318q-4.9518 3.28666-9.66478 6.91188-2.35578 1.81773-4.66647 3.70078a41.58405 41.58405 0 01-4.737 3.62717 9.14977 9.14977 0 003.06238-.52594c.98691-.29228 1.945-.64787 2.89263-1.01772 1.88989-.75025 3.716-1.6084 5.50711-2.51774a104.5096 104.5096 0 0010.32511-6.09108 118.02888 118.02888 0 009.61059-7.1224A73.05041 73.05041 0 00198.10018 397.79517zM164.64654 362.11589a48.8604 48.8604 0 00-1.40891-9.45366 82.10082 82.10082 0 00-2.71711-8.97507 80.81089 80.81089 0 00-3.70785-8.61289 48.33365 48.33365 0 00-5.02853-8.12976 48.3386 48.3386 0 001.4022 9.45594 80.81023 80.81023 0 002.72382 8.97279 82.21128 82.21128 0 003.71409 8.61062A48.86 48.86 0 00164.64654 362.11589zM162.55092 373.15463a49.92683 49.92683 0 00-2.71327-9.27689 84.07429 84.07429 0 00-3.94571-8.62734 82.67468 82.67468 0 00-4.87891-8.1358 49.39429 49.39429 0 00-6.12333-7.48009 49.39591 49.39591 0 002.707 9.28 82.77547 82.77547 0 003.95194 8.62422 84.17807 84.17807 0 004.88466 8.13269A49.9902 49.9902 0 00162.55092 373.15463zM160.96506 383.82951a54.68746 54.68746 0 00-3.9716-9.31333 92.67383 92.67383 0 00-5.12588-8.53323 91.05062 91.05062 0 00-6.00008-7.94273 54.0754 54.0754 0 00-7.16539-7.15519 54.07071 54.07071 0 003.96633 9.31711 90.93849 90.93849 0 005.13163 8.52945 92.572 92.572 0 006.00536 7.93907A54.68979 54.68979 0 00160.96506 383.82951zM159.80312 395.60676a70.51821 70.51821 0 00-5.686-9.99573q-3.17005-4.73088-6.765-9.11384-3.58293-4.39279-7.58115-8.44643a69.42442 69.42442 0 00-8.6702-7.55622 69.41857 69.41857 0 005.68071 9.99993q3.17 4.73059 6.76976 9.10964 3.59156 4.38641 7.58642 8.44224A70.43315 70.43315 0 00159.80312 395.60676zM158.85985 407.81925a71.21505 71.21505 0 00-6.73331-9.39576q-3.66422-4.39864-7.71542-8.40693-4.03971-4.01946-8.45777-7.65859a70.13768 70.13768 0 00-9.449-6.66031 70.14041 70.14041 0 006.72852 9.40043q3.66422 4.39819 7.71974 8.40226 4.0476 4.01218 8.46255 7.65386A71.18945 71.18945 0 00158.85985 407.81925zM158.28583 415.64994a62.0639 62.0639 0 00-7.31548-7.943 105.73906 105.73906 0 00-8.15565-6.8315 103.87229 103.87229 0 00-8.79152-5.99037 61.35139 61.35139 0 00-9.64032-4.8683 61.36826 61.36826 0 007.31164 7.94824 103.95138 103.95138 0 008.15949 6.82623 105.814 105.814 0 008.79584 5.985A62.07711 62.07711 0 00158.28583 415.64994zM157.97125 422.19083a65.69957 65.69957 0 00-8.54648-7.106q-4.48279-3.18676-9.23846-5.8965-4.74824-2.72307-9.76213-4.98123a64.92844 64.92844 0 00-10.46082-3.76024 64.93793 64.93793 0 008.5436 7.11173q4.4828 3.1864 9.24134 5.89075 4.75326 2.71436 9.76548 4.97553A65.70991 65.70991 0 00157.97125 422.19083zM158.21534 426.4335a70.9554 70.9554 0 00-9.999-5.75935c-3.43068-1.65624-6.92849-3.13192-10.48337-4.45295q-5.3316-1.98334-10.84974-3.46424a69.92076 69.92076 0 00-11.33935-2.14526 69.92189 69.92189 0 009.99662 5.76559q5.14674 2.4838 10.48577 4.44672c3.55679 1.31587 7.17113 2.47721 10.85213 3.458A70.94369 70.94369 0 00158.21534 426.4335z"/><path fill="#5e7c24" d="M156.49668,426.09508c-.96777-1.61133-23.75391-39.585-27.43945-49.41309l.91992-.3457c3.65332,9.74512,27.125,48.85937,27.36133,49.25293Z"/><path fill="#5e7c24" d="M137.42257 355.98054a42.19156 42.19156 0 00-2.26873 7.60423 71.09032 71.09032 0 00-1.15955 7.70979 69.67587 69.67587 0 00-.31937 7.78963 41.621 41.621 0 00.80084 7.89615 41.65872 41.65872 0 002.274-7.60381 69.787 69.787 0 001.15427-7.71027 71.08871 71.08871 0 00.3141-7.79011A42.154 42.154 0 00137.42257 355.98054zM146.0851 367.8248a40.24449 40.24449 0 00-2.94394 7.1697 67.58855 67.58855 0 00-1.84961 7.37986 66.55665 66.55665 0 00-1.02095 7.539 39.80388 39.80388 0 00.0844 7.75121 39.76715 39.76715 0 002.94921-7.16868 66.55907 66.55907 0 001.84434-7.38094 67.69787 67.69787 0 001.01567-7.54A40.28083 40.28083 0 00146.0851 367.8248zM150.858 381.61362a34.14657 34.14657 0 00-2.50611 6.66419 56.72531 56.72531 0 00-1.4022 6.82173 55.77522 55.77522 0 00-.5673 6.9409 33.71528 33.71528 0 00.54668 7.09992 33.71724 33.71724 0 002.51139-6.66348 55.68436 55.68436 0 001.39692-6.82244 56.72851 56.72851 0 00.562-6.94168A34.11409 34.11409 0 00150.858 381.61362zM156.86866 395.377a26.14167 26.14167 0 00-2.54112 5.6713 42.6006 42.6006 0 00-1.44247 5.86095 41.80994 41.80994 0 00-.61142 6.00446 25.83806 25.83806 0 00.49729 6.19592 25.819 25.819 0 002.54639-5.67039 41.88125 41.88125 0 001.43768-5.86186 42.6702 42.6702 0 00.60615-6.00536A26.14074 26.14074 0 00156.86866 395.377zM162.172 403.97954a23.53539 23.53539 0 00-2.68259 4.97961 40.58041 40.58041 0 00-1.68656 5.16568 46.36964 46.36964 0 00-1.01856 5.29743c-.1103.89915-.21148 1.79326-.27862 2.70464a20.12645 20.12645 0 01-.29636 2.76938 5.436 5.436 0 00.65219-.41169l.52942-.5305a9.78963 9.78963 0 00.926-1.15822 18.55108 18.55108 0 001.42377-2.47794 27.59292 27.59292 0 001.86832-5.225 30.92845 30.92845 0 00.87949-5.44045A20.48128 20.48128 0 00162.172 403.97954zM132.27176 382.74469a33.83232 33.83232 0 00-5.97514-5.18132 55.37059 55.37059 0 00-6.60432-3.93822 54.39958 54.39958 0 00-7.081-2.99734 33.44616 33.44616 0 00-7.7159-1.74238 33.43621 33.43621 0 005.97179 5.18726 54.40388 54.40388 0 006.60767 3.93228 55.34762 55.34762 0 007.08386 2.99141A33.83018 33.83018 0 00132.27176 382.74469zM138.14093 393.70724a41.67712 41.67712 0 00-7.36967-4.82442 69.39071 69.39071 0 00-7.85976-3.52 68.14927 68.14927 0 00-8.23046-2.533 41.20216 41.20216 0 00-8.72487-1.21619 41.21126 41.21126 0 007.3668 4.83065 68.16046 68.16046 0 007.86216 3.51381 69.37457 69.37457 0 008.23285 2.52673A41.67725 41.67725 0 00138.14093 393.70724zM145.04976 405.89251a35.54193 35.54193 0 00-6.64316-4.65783 58.40734 58.40734 0 00-7.15-3.35982 57.37017 57.37017 0 00-7.53319-2.37747 35.13075 35.13075 0 00-8.04439-1.06706 35.14212 35.14212 0 006.64076 4.664 57.38127 57.38127 0 007.15243 3.35365 58.4148 58.4148 0 007.53559 2.3713A35.54049 35.54049 0 00145.04976 405.89251zM150.50987 415.27154a26.64429 26.64429 0 00-5.83464-3.84314 42.55284 42.55284 0 00-6.25088-2.51336 41.78974 41.78974 0 00-6.56643-1.5071 26.36188 26.36188 0 00-6.98652-.16466 26.36047 26.36047 0 005.83273 3.84944 41.78677 41.78677 0 006.25328 2.50706 42.53285 42.53285 0 006.56787 1.50069A26.65834 26.65834 0 00150.50987 415.27154z"/><path fill="#5e7c24" d="M154.82 423.68722a35.04589 35.04589 0 00-6.41346-4.873 57.5168 57.5168 0 00-6.96685-3.59432 56.51519 56.51519 0 00-7.386-2.62671 34.65141 34.65141 0 00-7.94465-1.33578 34.63911 34.63911 0 006.41058 4.87915 56.493 56.493 0 006.96973 3.58832 57.50551 57.50551 0 007.38837 2.62048A35.04392 35.04392 0 00154.82 423.68722zM130.36461 378.078a24.66668 24.66668 0 00-.19134-7.87637 37.11311 37.11311 0 00-2.0069-7.16538 36.50478 36.50478 0 00-3.38224-6.62686 24.4203 24.4203 0 00-5.216-5.90909 24.40558 24.40558 0 00.18223 7.87973 36.53725 36.53725 0 002.01553 7.162 37.11776 37.11776 0 003.39135 6.62343A24.6706 24.6706 0 00130.36461 378.078z"/><path fill="#f9e0c0" d="M300.02915 195.23644q-15.07746.89757-30.163 1.41333c-10.05652.37158-20.11542.62622-30.17481.85839-10.06018.19458-20.12085.364-30.184.41724q-15.09384.12195-30.19586-.144 15.07735-.90089 30.163-1.41626c10.05646-.3711 20.11536-.62573 30.17481-.85547 10.06024-.19214 20.12091-.36157 30.18408-.41431Q284.92728 194.97484 300.02915 195.23644zM219.07236 225.47521q-15.07754.89757-30.16308 1.41357c-10.05646.37158-20.11536.62622-30.17475.85815-10.06018.19458-20.12085.36426-30.184.41724q-15.09384.12231-30.19586-.1438 15.07737-.90125 30.163-1.4165c10.05646-.3711 20.11536-.62574 30.17481-.85523 10.06024-.19214 20.12091-.36181 30.18408-.4143Q203.97043 225.21349 219.07236 225.47521zM253.674 259.31651q-15.07755.89758-30.163 1.41358c-10.05646.37158-20.11542.62622-30.1748.85815-10.06012.19458-20.12085.36426-30.184.41724q-15.09384.12231-30.19587-.1438 15.07746-.90124 30.163-1.4165c10.05646-.3711 20.11535-.62574 30.1748-.85523 10.06024-.19214 20.121-.36182 30.18415-.41431Q238.572 259.0548 253.674 259.31651z"/><path fill="#935b50" d="M601.64512,428.848H107.80332a1,1,0,0,1,0-2h493.8418a1,1,0,0,1,0,2Z"/><path fill="#5669a5" d="M434.93774,252.025c9.65178,0,9.66777-15,0-15-9.65179,0-9.66778,15,0,15Z"/><path fill="#f9977a" d="M353.11393,126.1426a19.40046,19.40046,0,0,1,9.068.69932c1.371.473,6.38534,2.20275,8.86241,6.9151.94082,1.78965,1.16839,3.95027,1.62408,8.2715.28458,2.69911,1.3415,4.625,1.368,7.9197a27.83585,27.83585,0,0,1-1.2332,7.87312c-1.17749,3.99326-.37806,6.24944-.97586,6.9991-2.40919,3.02136-9.821.73018-9.8986,4.64656-.04791,2.41827,4.1217,12.82066,4.06258,15.65367-.13776,6.60169-11.21856-.21135-17.89653-9.99979-.30308-.44424-4.83329-3.04447-4.39812-7.32456.23254-2.28649,2.08043-13.02166,1.88243-14.403-.71611-4.99281-3.24014-5.5809-5.27751-11.60623a9.39889,9.39889,0,0,1,1.476-9.07472A19.19853,19.19853,0,0,1,353.11393,126.1426Z"/><ellipse cx="371.665" cy="146.277" fill="#0a0709" rx="1.015" ry="1.262" transform="rotate(-.489 371.606 146.254)"/><ellipse cx="362.514" cy="146.355" fill="#0a0709" rx="1.015" ry="1.262" transform="rotate(-.489 362.51 146.354)"/><path fill="#1e1d22" d="M366.81894 144.05875a.63668.63668 0 00.34712-.10677 5.42222 5.42222 0 016.12651-.07673.64058.64058 0 00.76155-1.03024 6.80006 6.80006 0 00-7.59528.03839.641.641 0 00.3601 1.17535zM357.33428 144.13974a.63671.63671 0 00.34712-.10677 5.47664 5.47664 0 016.12649-.07877.64007.64007 0 10.76259-1.02821 6.802 6.802 0 00-7.5963.0384.641.641 0 00.3601 1.17535z"/><path fill="#dd765e" d="M365.94886 144.32663a4.78489 4.78489 0 00.14452 3.24876 10.44 10.44 0 001.57524 2.8842l.53505.59863a.66163.66163 0 01.21691.46492 1.64734 1.64734 0 01-.57947 1.11074 4.07275 4.07275 0 01-2.84869.79581 3.56863 3.56863 0 003.253-.31112 2.18946 2.18946 0 00.94118-1.5937 1.42257 1.42257 0 00-.37824-.97554l-.51677-.60471a14.79444 14.79444 0 01-1.625-2.62764A6.13045 6.13045 0 01365.94886 144.32663zM349.322 144.89569a1.80059 1.80059 0 00-1.20121.07144 2.949 2.949 0 00-1.01016.66646 3.44945 3.44945 0 00-.67373.977 2.97 2.97 0 00-.27286 1.14628 9.40178 9.40178 0 00.80041-.8c.25327-.25294.46925-.52261.71864-.75244a9.34564 9.34564 0 01.74412-.68836A6.19026 6.19026 0 01349.322 144.89569z"/><path fill="#dd765e" d="M348.54225,150.16593a3.05175,3.05175,0,0,0,.56271-2.44884,3.29471,3.29471,0,0,0-.46241-1.20869,2.69335,2.69335,0,0,0-.90576-.90184,20.40413,20.40413,0,0,1,.57152,2.24816A19.62018,19.62018,0,0,1,348.54225,150.16593Z"/><path fill="#1e1d22" d="M354.79112,154.81682s-1.74327-7.24393-1.45325-9.32458c.40443-2.89928.60667-4.34884.24981-5.52426-.57114-1.88141.34594-2.13486,1.51079-4.172,1.09326-1.91192,4.54395-.40129,5.39908-.7257,2.40005-.91065,2.30235-1.92368,3.92925-2.0388,1.66856-.11806,2.88992-.56956,3.97758.49834,1.10925,1.09,3.15257,3.99515,3.64593,3.48391a9.51344,9.51344,0,0,0,1.82088-4.81187,10.54546,10.54546,0,0,0-1.22435-4.918c-.40268-.876-1.90219-4.13593-4.97363-4.98343-1.769-.48821-2.10036.36459-5.91582.62312-3.9574.26827-4.08787-.616-6.15638-.00895-2.28972.67209-2.193,1.77348-6.0972,3.94964a40.61861,40.61861,0,0,1-3.98881,1.88033c-4.9066,2.12732-5.55346,1.7994-6.67665,2.90347-2.42147,2.38033-1.98815,6.43379-1.88349,7.41289.29492,2.75752,1.37957,3.57766,3.761,7.97862,3.77084,6.96955,3.0513,9.91783,4.41978,10.88789.67132.47587,4.17018-2.05662,4.14335-3.28958-.035-1.61625-1.204-2.11637-2.5955-4.441-.97186-1.62464-2.36786-3.95713-1.594-6.08894.46828-1.28865,1.006-.94182,2.338-.82978,1.80783.15207,2.718,2.66076,3.458,4.50133a9.88524,9.88524,0,0,1,.6964,4.19745C351.4179,155.17425,355.42426,156.08381,354.79112,154.81682Z"/><path fill="#0a0709" d="M362.92368,157.90805s4.02913,3.69411,7.57179-.06465"/><path fill="#ffba55" d="M363.82234,176.6901s7.08057,20.47339-19.99365-9.93969l-11.76318,9.76806a14.34436,14.34436,0,0,0-4.77832,7.99463q-.86425,6.6438-1.729,13.28784a197.98157,197.98157,0,0,0-.04541,50.73389q.87452,6.81372,1.74854,13.62769l50.58252,6.94507A128.37307,128.37307,0,0,1,372.838,239.185c-.56934-12.13355.93359-17.29614.35986-27.36011A93.2765,93.2765,0,0,0,363.82234,176.6901Z"/><path fill="#e6952a" d="M371.20021,258.39c-.91628-.52516-1.84945-1.00121-2.76907-1.50077L365.73051,255.3a45.36414,45.36414,0,0,1-5.031-3.67038,27.93752,27.93752,0,0,1-4.29637-4.46062,19.12563,19.12563,0,0,1-1.659-2.6215,11.81606,11.81606,0,0,1-1.15888-2.89672,13.39431,13.39431,0,0,0,2.30958,5.87683,22.56915,22.56915,0,0,0,4.28024,4.71719,32.10376,32.10376,0,0,0,5.24195,3.58933l2.838,1.40783C369.24034,257.62533,370.21158,258.0321,371.20021,258.39Z"/><path fill="#dd765e" d="M357.06142,164.40823c3.33379,2.301,9.7222,2.14616,9.7222,2.14616l.02052.14873c-2.48107.32333-4.83178.56735-4.87533,2.76372a15.76892,15.76892,0,0,0,.778,3.60768C358.34415,170.61678,357.06142,164.40823,357.06142,164.40823Z"/><polygon fill="#f9977a" points="423.179 341.822 425.887 355.536 452.43 359.811 416.937 370.589 409.466 345.986 423.179 341.822"/><path fill="#065082" d="M456.36012,359.93892l-.02466-.08121a3.51259,3.51259,0,0,0-2.7598-2.44014l-27.6624-4.80587a1.17094,1.17094,0,0,0-1.30048.75259l-2.79419,7.6652a1.17089,1.17089,0,0,1-1.38472.73473l-6.50694-1.6311a1.17092,1.17092,0,0,0-1.405,1.47592l3.23662,10.65881a1.17093,1.17093,0,0,0,1.46058.78019L455.58,361.39949A1.17088,1.17088,0,0,0,456.36012,359.93892Z"/><path fill="#8b9d36" d="M326.29461,252.18525s-8.08269,35.82611,7.36446,35.18382h58.72369l15.8204,63.8494s6.08284,2.48136,11.36289,1.37585c3.62695-.75939,6.75255-4.21949,8.925-5.9887,0,0-11.55756-91.53775-33.42114-94.31755C367.79774,248.82059,326.29461,252.18525,326.29461,252.18525Z"/><path fill="#5e7c24" d="M392.38254,287.369a39.06786,39.06786,0,0,0,3.61585-5.40918c.49194-.93847.996-1.876,1.436-2.86547.46582-.98145.86512-1.99854,1.40113-3.042a9.81169,9.81169,0,0,1-.16577,3.4502,11.6638,11.6638,0,0,1-1.21216,3.26245,11.28211,11.28211,0,0,1-2.13245,2.76465A7.63819,7.63819,0,0,1,392.38254,287.369Z"/><path fill="#ffba55" d="M345.40625,189.57145s2.29135-5.46,32.27353,37.60161l-11.39213,14.78507s-16.54051-13.611-24.03276-25.36125"/><polygon fill="#6c7fd8" points="440.881 232.525 467.325 219.912 468.681 248.813 443.254 240.584 440.881 232.525"/><ellipse cx="286.619" cy="388.655" fill="#1e1d22" rx="39.087" ry="39.192"/><ellipse cx="286.619" cy="388.655" fill="#848384" rx="20.286" ry="20.34"/><path fill="#fff" d="M285.84761,393.75141c3.82548,0,3.83182-5.94524,0-5.94524-3.82547,0-3.83181,5.94524,0,5.94524Z"/><ellipse cx="498.695" cy="388.655" fill="#1e1d22" rx="39.087" ry="39.192"/><ellipse cx="498.695" cy="388.655" fill="#848384" rx="20.286" ry="20.34"/><path fill="#1e1d22" d="M497.92275,396.77879c7.72142,0,7.73421-12,0-12-7.72143,0-7.73422,12,0,12Z"/><path fill="#6c7fd8" d="M548.6663,384.19052s-35.6234-17.85977-98.95388,5.95326H336.59116s-37.60247,23.813-100.93295,5.95326c0,0-7.91631-13.89094,11.87446-43.65722,0,0,11.87447-33.73513,19.79078-39.68839l109.12668.05706s-2.54676,55.092,37.03479,59.06084,35.62339-33.73512,35.62339-33.73512l-5.23938-83.444a155.36731,155.36731,0,0,0-1.08056-15.83042c-.72036-6.12775-2.79923-5.2757-.32538-4.03544,3.95815,1.98442,42.87282,44.19192,50.78913,103.72449C493.25212,338.54888,538.77091,332.59562,548.6663,384.19052Z"/><path fill="#5669a5" d="M493.25217 338.54894a59.11632 59.11632 0 00-16.52807 7.12158 54.44868 54.44868 0 00-7.10718 5.31225A46.57015 46.57015 0 00463.52 357.37a50.28978 50.28978 0 00-4.974 7.31274c-.39832.625-.7229 1.29175-1.06775 1.94825-.3313.66308-.71106 1.30395-1.00464 1.98681-.59192 1.3628-1.25611 2.699-1.778 4.09961a103.11091 103.11091 0 00-4.98327 17.42627 57.485 57.485 0 012.52929-18.29126 49.32955 49.32955 0 018.68482-16.57495 46.00035 46.00035 0 0123.18933-15.3064A36.12662 36.12662 0 01493.25217 338.54894zM336.59116 390.14366a68.90938 68.90938 0 008.15332-17.34277c1.8479-6.04639 2.636-12.5022 1.19751-18.48364a25.12983 25.12983 0 00-10.2915-14.63868c-.31348-.22338-.606-.4729-.93567-.67578l-.98877-.60913c-.66382-.39892-1.29822-.84155-1.9845-1.20679-1.40307-.68554-2.72839-1.48388-4.21484-2.04711l-2.17944-.91773a22.45329 22.45329 0 00-2.151-.76684c-1.47619-.45972-2.99584-.83838-4.52648-1.16138a68.03186 68.03186 0 00-18.77649-1.27051 79.34014 79.34014 0 00-9.39869 1.18677c-3.11059.58642-6.17712 1.39453-9.22522 2.28222a111.44837 111.44837 0 00-33.73669 17.94751l3.6084-3.23608 3.77728-3.0481 3.91052-2.89013c1.34864-.89966 2.68244-1.82959 4.05054-2.708a90.57251 90.57251 0 0117.57428-8.53589 78.84981 78.84981 0 0119.20752-4.147 69.68972 69.68972 0 0119.70459 1.1604c1.62036.35547 3.22913.76929 4.827 1.281.78735.25341 1.62085.53759 2.39489.876l2.26941.97754c1.52869.5957 2.97742 1.46777 4.46057 2.2146.7323.39819 1.42334.88232 2.13611 1.32031a17.68228 17.68228 0 012.06458 1.43994 27.37088 27.37088 0 0110.95483 16.615 30.39454 30.39454 0 01.26306 10.00831 44.27018 44.27018 0 01-2.453 9.55542 63.14348 63.14348 0 01-4.21472 8.81079A57.86863 57.86863 0 01336.59116 390.14366zM262.99024 314.32233H370.98431c6.55762 0 11.87446-6.03415 11.87446-13.4765s-5.31684-13.4765-11.87446-13.4765H262.99024c-6.55763 0-11.87447 6.03416-11.87447 13.4765S256.43261 314.32233 262.99024 314.32233z"/><path fill="#5669a5" d="M323.52927 346.60558a38.234 38.234 0 01-6.03357 5.71069 60.75306 60.75306 0 01-6.92187 4.65015c-1.17957.74731-2.43054 1.35351-3.66577 1.99682-1.22693.66358-2.504 1.21289-3.76941 1.79419-.63147.2937-1.2721.56592-1.91089.84278l-1.95032.74047c-1.30676.47412-2.5935 1.01343-3.91846 1.4336a95.56863 95.56863 0 01-16.20739 3.74072c-2.73157.45117-5.511.564-8.25611.80957-2.76452.08594-5.52935.08936-8.28222-.00952 2.70019-.63989 5.40063-1.07788 8.07922-1.61524l4.00049-.86621c1.33069-.28808 2.67041-.511 3.98205-.87646 1.3169-.33643 2.63379-.66065 3.95569-.95581 1.32813-.27051 2.61292-.71411 3.91907-1.06421 1.29553-.38843 2.62622-.65234 3.904-1.09375l3.859-1.23316c1.29517-.383 2.54883-.883 3.82617-1.3186l1.90589-.68188c.62341-.25586 1.245-.51636 1.87585-.75537 2.53516-.9336 4.9812-2.073 7.4458-3.18165 1.21643-.58544 2.44812-1.15234 3.64051-1.78906l1.81091-.926 1.77307-.99536A70.12371 70.12371 0 00323.52927 346.60558zM328.15854 359.69518a38.23872 38.23872 0 01-6.03344 5.71069 60.76468 60.76468 0 01-6.92188 4.65015c-1.17956.74731-2.43066 1.35351-3.66577 1.99682-1.227.66358-2.50415 1.21289-3.76941 1.79419-.63147.2937-1.27209.56592-1.911.84277l-1.95019.74048c-1.30677.47412-2.59363 1.01343-3.91846 1.4336a95.5714 95.5714 0 01-16.2074 3.74072c-2.73169.45117-5.511.564-8.2561.80933-2.76465.08618-5.52942.0896-8.28223-.00928 2.7002-.63989 5.40051-1.07788 8.0791-1.61524l4.00061-.86621c1.33069-.28808 2.67029-.511 3.98206-.87646 1.31689-.33643 2.63379-.66065 3.95569-.95581 1.32812-.27051 2.61291-.71411 3.91906-1.06421 1.29541-.38843 2.62623-.65259 3.90406-1.09375l3.85888-1.23316c1.29517-.38305 2.54883-.88305 3.8263-1.3186l1.90588-.68188c.62342-.25586 1.245-.51636 1.87586-.75537 2.535-.9336 4.9812-2.073 7.44568-3.18165 1.21655-.58544 2.44824-1.15234 3.64062-1.78906l1.81091-.926 1.77307-.99536A70.1069 70.1069 0 00328.15854 359.69518z"/><ellipse cx="467.865" cy="234.369" fill="#ffba55" rx="4.493" ry="14.466" transform="rotate(-2.687 467.865 234.369)"/><path fill="#e6952a" d="M467.18625,219.91808a2.19446,2.19446,0,0,0-1.405,1.21948,7.84394,7.84394,0,0,0-.70459,1.779,23.58854,23.58854,0,0,0-.69593,3.81568,56.61478,56.61478,0,0,0,.733,15.56469,23.57934,23.57934,0,0,0,1.04992,3.7334,7.82019,7.82019,0,0,0,.86695,1.70508,2.19479,2.19479,0,0,0,1.5122,1.0835,2.2574,2.2574,0,0,1-1.85962-.77881,7.639,7.639,0,0,1-1.25476-1.64991,18.15422,18.15422,0,0,1-1.5758-3.77392,35.21312,35.21312,0,0,1-.75257-16.08325,18.15852,18.15852,0,0,1,1.21509-3.90454,7.63144,7.63144,0,0,1,1.09363-1.76026A2.25822,2.25822,0,0,1,467.18625,219.91808Z"/><path fill="#5669a5" d="M456.48167,250.49962c-1.23462-1.0835-2.36927-2.22217-3.48426-3.37109l-3.30554-3.44458c-1.08447-1.15235-2.19019-2.27735-3.32983-3.34424a18.92551,18.92551,0,0,0-1.78894-1.4895,4.68693,4.68693,0,0,0-2.11011-.95191,3.86412,3.86412,0,0,1,2.49158.22778,11.28371,11.28371,0,0,1,2.21154,1.19092,23.48461,23.48461,0,0,1,3.73023,3.21558,34.82543,34.82543,0,0,1,3.0968,3.76636A25.59152,25.59152,0,0,1,456.48167,250.49962Z"/><path fill="#f73c4f" d="M304.46766,284.12232h-59.425a3.233,3.233,0,0,1-3.233-3.233v-43.5236h65.89094v43.5236A3.233,3.233,0,0,1,304.46766,284.12232Z"/><path fill="#b02336" d="M315.67781,226.87243v5.91748a4.37317,4.37317,0,0,1-4.1314,4.57761H237.95955a4.36758,4.36758,0,0,1-4.12429-4.57761v-5.91748a4.36522,4.36522,0,0,1,4.12429-4.56952h73.58686A4.37081,4.37081,0,0,1,315.67781,226.87243Z"/><rect width="3.643" height="64.44" x="272.935" y="222.303" fill="#e19974"/><rect width="65.891" height="4.038" x="241.81" y="257.642" fill="#e19974"/><path fill="#e19974" d="M306.972,284.15116H267.77883l-8.83919-9.29437a1.35917,1.35917,0,0,0-2.06.05992,1.74043,1.74043,0,0,0,.05408,2.28319l6.61053,6.95126H252.99905V276.816a1.465,1.465,0,1,0-2.91461,0v7.33521h-7.19936a1.62312,1.62312,0,0,0,0,3.22926h7.19936v7.3352a1.465,1.465,0,1,0,2.91461,0v-7.3352H266.6154l7.342,7.71994a1.35954,1.35954,0,0,0,2.06-.05992,1.74043,1.74043,0,0,0-.05408-2.28318L270.85,287.38042H306.972a1.62312,1.62312,0,0,0,0-3.22926Z"/><path fill="#f9977a" d="M377.34258,228.01013l45.11506,6.01471s18.42572-6.83746,22.17853,2.85931a6.15231,6.15231,0,0,1,.0407,4.15815c-1.12517,3.37313-3.78589,10.0333-5.73443,4.47623l-2.00354-5.71391s-6.91571,4.789-13.59748,2.41422c-2.41411-.858-34.72368,5.43494-52.14121,1.18627l-4.91256-1.447Z"/><path fill="#e6952a" d="M345.40623,189.5714c.14355-.2461.46606-.24634.71765-.221a4.2415,4.2415,0,0,1,.76562.22021,9.748,9.748,0,0,1,1.37049.79908,11.54113,11.54113,0,0,1,1.265.95385c.3999.34253.8313.65625,1.20618,1.02515,1.56347,1.41553,3.04211,2.91943,4.4779,4.459,2.86658,3.08838,5.50659,6.36377,8.1543,9.63038,2.628,3.282,5.1665,6.63354,7.65124,10.021,2.52637,3.35962,4.89429,6.82837,7.34473,10.24072l.353.4917-.37671.48706-5.70947,7.38208-5.74182,7.35718-.48609.623-.58935-.50122c-2.24659-1.90967-4.41639-3.86865-6.53052-5.90308-2.11426-2.03027-4.1919-4.0979-6.203-6.23022-2.01185-2.13111-3.96155-4.32324-5.781-6.62256a64.66366,64.66366,0,0,1-5.03955-7.187,81.27713,81.27713,0,0,0,5.47656,6.81762c1.95093,2.16407,3.99109,4.24366,6.04663,6.30445,2.07141,2.04687,4.20764,4.02759,6.37732,5.96875,2.1792,1.92627,4.37232,3.85522,6.61084,5.68872l-1.07519.12182,5.65026-7.42749,5.6825-7.40283-.02368.97827c-2.413-3.42578-4.79138-6.87866-7.24146-10.27636-2.41528-3.42456-4.905-6.79224-7.38232-10.16944-2.51392-3.34692-5.04871-6.6853-7.75818-9.8706-1.33594-1.60865-2.715-3.18189-4.18054-4.67017-.352-.38891-.75513-.71753-1.13159-1.07959a12.57759,12.57759,0,0,0-1.1875-1.01367,9.55073,9.55073,0,0,0-1.28125-.88623,4.21992,4.21992,0,0,0-.72217-.26978C345.87534,189.36852,345.5676,189.33995,345.40623,189.5714Z"/><path fill="#935b50" d="M251.6 286.82757a1.15115 1.15115 0 000-2.30093 1.15115 1.15115 0 000 2.30093zM251.6 295.47391a1.15115 1.15115 0 000-2.30093 1.15115 1.15115 0 000 2.30093zM258.15787 277.41832a1.15115 1.15115 0 000-2.30093 1.15115 1.15115 0 000 2.30093zM251.6 278.20545a1.15115 1.15115 0 000-2.30092 1.15115 1.15115 0 000 2.30092zM266.552 286.82757a1.15115 1.15115 0 000-2.30093 1.15115 1.15115 0 000 2.30093zM274.75517 260.81144a1.15115 1.15115 0 000-2.30093 1.15115 1.15115 0 000 2.30093zM274.75517 225.57662a1.15115 1.15115 0 000-2.30092 1.15115 1.15115 0 000 2.30092zM305.72435 260.81144a1.15115 1.15115 0 000-2.30093 1.15115 1.15115 0 000 2.30093zM243.6431 260.81144a1.15115 1.15115 0 000-2.30093 1.15115 1.15115 0 000 2.30093zM274.75517 286.52231a1.15115 1.15115 0 000-2.30093 1.15115 1.15115 0 000 2.30093zM274.75517 294.94108a1.15115 1.15115 0 000-2.30093 1.15115 1.15115 0 000 2.30093zM243.6431 286.82757a1.15115 1.15115 0 000-2.30093 1.15115 1.15115 0 000 2.30093zM305.72435 286.82757a1.15115 1.15115 0 000-2.30093 1.15115 1.15115 0 000 2.30093z"/></svg>