<svg xmlns="http://www.w3.org/2000/svg" viewBox="0 0 502 379.17"><g data-name="Layer 2"><g data-name="Layer 1"><path fill="#f9e0c0" d="M423.019,252.75851c-21.36478,54.47009-158.793,124.03309-184.47139,41.445-13.51651-43.47273-65.2689-112.556-107.10208-155.80886C90.76872,96.3371,235.40075,65.36909,315.91657,96.94978S444.38379,198.28842,423.019,252.75851Z"/><path fill="#f4c5a2" d="M438.27979,257.33887l-.93067-.36524c23.29834-59.39941-29.27978-135.78222-117.20557-170.26953-32.0415-12.56836-77.604-17.14062-121.88037-12.23144-42.15625,4.67382-74.4917,16.79882-84.3872,31.64453-5.40332,8.10644-3.90577,16.59765,4.45068,25.2373l-.71875.69531c-8.60547-8.89746-10.18359-18.05664-4.564-26.4873,10.05517-15.085,42.667-27.37891,85.10937-32.084,44.43115-4.92383,90.17041-.32911,122.35547,12.29394C408.94775,120.46191,461.77979,197.42578,438.27979,257.33887Z"/><polygon fill="#c38f86" points="275.825 279.823 286.579 187.419 360.006 188.818 349.381 276.767 275.825 279.823"/><rect width="77.983" height="8.278" x="364.087" y="285.985" fill="#c38f86" transform="rotate(-180 403.078 290.124)"/><path fill="#c38f86" d="M365.8294,285.98471v38.7738h71.08725c1.45214-35.17668,8.34-63.21054,15.042-82.72566,10.71541-31.2067,23.09125-47.86422,23.61243-48.55794l9.679,7.26337c-.47272.63344-47.15869,64.62574-34.26521,176.03908l-12.0213,1.39216A345.557,345.557,0,0,1,436.6472,335.65H365.8294v41.82343H354.50211V285.98471Z"/><path fill="#f65b2b" d="M354.50207,285.98474h87.56767v-2.2405a10.08237,10.08237,0,0,0-10.08238-10.08237H364.58445a10.08238,10.08238,0,0,0-10.08238,10.08237Z"/><rect width="8.036" height="101.335" x="332.203" y="276.767" fill="#c38f86"/><rect width="8.036" height="101.335" x="270.983" y="276.767" fill="#c38f86"/><rect width="88.804" height="13.401" x="260.577" y="272.076" fill="#f65b2b" rx="6.7"/><path fill="#f9977a" d="M266.51968,353.90673l.59887,18.90862s-10.59913,2.59852-15.59489-9.693l.876-11.04159Z"/><path fill="#935b50" d="M266.92163,360.348s8.4287,10.52831,3.757,16.73374a2.59657,2.59657,0,0,1-2.0898,1.02049l-41.78706-.22685a1.36233,1.36233,0,0,1-1.34152-1.52256c.23982-2.16476,1.25037-6.07969,5.33809-7.87744,5.81208-2.55613,9.93544,2.04982,19.62725-6.28558C250.42557,362.18975,262.98827,365.8,266.92163,360.348Z"/><path fill="#f9977a" d="M316.999,353.90673l.59887,18.90862s-10.59913,2.59852-15.59489-9.693l.876-11.04159Z"/><path fill="#935b50" d="M317.401,360.348s8.4287,10.52831,3.757,16.73374a2.59659,2.59659,0,0,1-2.08981,1.02049l-41.78706-.22685a1.36233,1.36233,0,0,1-1.34152-1.52256c.23983-2.16476,1.25038-6.07969,5.3381-7.87744,5.81208-2.55613,9.93543,2.04982,19.62724-6.28558C300.9049,362.18975,313.46761,365.8,317.401,360.348Z"/><path fill="#f73c4f" d="M289.94975,165.86754l-14.601,7.16777-27.0595,18.3187,8.45089,14.775,20.47385-4.54442s7.95726,15.51918,14.06313,26.669L289.94975,244.182h63.979l-3.71662-41.67924s.26547-27.07823-12.21175-34.51147c0,0-7.43324-4.77851-21.76878-4.513a15.18685,15.18685,0,0,0-3.58388-5.27627Z"/><path fill="#ffba55" d="M354.06264,244.109s8.48051,31.90891-33.922,32.89072l2.12012,81.32617H297.24325l-2.96818-83.7807-20.71271,1.11533-1.76063,82.66537H248.28924l1.46317-90.16248c0-13.28489,9.30229-24.05441,20.77724-24.05441Z"/><path fill="#e6952a" d="M323.25014 264.39966a21.16549 21.16549 0 01-.19691 6.65332 14.5194 14.5194 0 01-.96169 3.22388 6.861 6.861 0 01-1.95092 2.7229 10.38793 10.38793 0 001.37649-2.94043 24.675 24.675 0 00.76311-3.15235C322.69335 268.77148 322.93325 266.59961 323.25014 264.39966zM306.00644 244.10889a4.89421 4.89421 0 00-3.98423 1.31347 11.04961 11.04961 0 00-2.5985 3.41919 31.26331 31.26331 0 00-2.80093 8.24585l-.48489 2.14038-.35281 2.17066-.3499 2.17212c-.07425.73047-.16206 1.45947-.25547 2.18823-.41458 2.91186-.56627 5.85156-.90464 8.78638.0115-2.94751.01212-5.90552.30238-8.84888.05255-.73755.11071-1.47461.18242-2.21045l.31724-2.19727.3211-2.19775.45791-2.178a29.66707 29.66707 0 013.04274-8.36767 11.40668 11.40668 0 012.88682-3.42481A4.92241 4.92241 0 01306.00644 244.10889zM273.56236 275.6604l-.92962-2.022c-.31656-.65772-.62406-1.314-.992-1.9292a9.01354 9.01354 0 00-2.80716-3.21851 4.26175 4.26175 0 012.04931 1.02149 7.114 7.114 0 011.44066 1.80639A9.42374 9.42374 0 01273.56236 275.6604z"/><path fill="#f9977a" d="M294.50283,229.40279l-13.77063-2.46994a5.22864,5.22864,0,0,0-4.29017.943l-9.124,6.93426c2,4.74068,26.87934,4.68364,26.87934,4.68364S297.25235,229.55883,294.50283,229.40279Z"/><path fill="#dd765e" d="M270.764 237.06543a49.90871 49.90871 0 013.93666-3.45459c1.36471-1.08252 2.75819-2.12744 4.19464-3.11572l.08046-.05542.06978-.00464q1.75736-.12012 3.53157-.08789-1.724.42-3.46462.68994l.14986-.05982c-1.33515 1.12134-2.71329 2.18628-4.12018 3.21363A49.908 49.908 0 01270.764 237.06543zM275.94086 238.26123a26.15407 26.15407 0 012.575-2.55347c.90887-.78906 1.84012-1.55053 2.81633-2.25683l.07646-.05518.05672-.01a24.6456 24.6456 0 012.96357-.35327 24.74108 24.74108 0 01-2.81393.99463l.13283-.06519c-.89015.812-1.82527 1.56885-2.78278 2.2981A26.18543 26.18543 0 01275.94086 238.26123zM282.12076 239.01636a10.17371 10.17371 0 012.03213-2.82373l.09482-.09912.10622-.01661a8.551 8.551 0 012.22308-.08154 8.54964 8.54964 0 01-2.073.80713l.20072-.11548A10.17339 10.17339 0 01282.12076 239.01636z"/><path fill="#f9977a" d="M307.51774,121.20387a19.6171,19.6171,0,0,0-9.19482.176c-1.41164.39734-6.57461,1.85047-9.35056,6.46273-1.05433,1.75163-1.41033,3.91943-2.12287,8.255-.445,2.70807-1.62451,4.59041-1.84386,7.91484a28.14664,28.14664,0,0,0,.78477,8.01983c.95528,4.09994.01642,6.33078.57608,7.12249,2.25546,3.1908,9.87145,1.31106,9.72089,5.26911-.093,2.444-8.44677,9.912-5.66626,10.60379,6.42631,1.59878,13.97112.00952,17.61845-1.60593.4972-.22022,6.156-1.48728,5.96689-5.83338-.10112-2.32176-.75567-17.0522-.47506-18.4351,1.01468-4.99829,3.597-5.44444,6.00583-11.40783a9.50388,9.50388,0,0,0-.95964-9.247A19.41292,19.41292,0,0,0,307.51774,121.20387Z"/><ellipse cx="287.614" cy="140.445" fill="#0a0709" rx="1.276" ry="1.026" transform="rotate(-86.197 287.614 140.445)"/><ellipse cx="296.847" cy="141.059" fill="#0a0709" rx="1.276" ry="1.026" transform="rotate(-86.197 296.848 141.058)"/><path fill="#1e1d22" d="M292.67969 138.48926a.64486.64486 0 01-.38721-.12891 5.48646 5.48646 0 00-6.18164-.43555.64777.64777 0 01-.708-1.085 6.87957 6.87957 0 017.665.4834.64727.64727 0 01-.38818 1.166zM302.249 139.126a.64739.64739 0 01-.38769-.12891 5.47584 5.47584 0 00-6.18115-.43555.64791.64791 0 01-.7085-1.085 6.88339 6.88339 0 017.666.4834.64766.64766 0 01-.38868 1.166z"/><path fill="#dd765e" d="M293.49847 138.8103a5.08217 5.08217 0 01-.471 3.20044 11.75844 11.75844 0 01-1.7649 2.75879c-.36427.41821-.875.71533-.87033 1.15039a1.84789 1.84789 0 00.60593 1.27735 3.98687 3.98687 0 002.9337.85815 3.71435 3.71435 0 01-3.16087-.61572 2.059 2.059 0 01-.77119-1.54151 1.25738 1.25738 0 01.38878-.84057l.55792-.58179a12.89393 12.89393 0 001.78786-2.61816A5.79134 5.79134 0 00293.49847 138.8103zM310.24974 140.35645a2.69424 2.69424 0 012.04466 1.00219 4.74872 4.74872 0 01.63493.97388l.21342.53516c.04289.18945.09859.37133.12745.56152a15.41934 15.41934 0 00-1.29834-1.78418 4.74262 4.74262 0 00-.77335-.73877A3.90407 3.90407 0 00310.24974 140.35645z"/><path fill="#dd765e" d="M310.72875,145.72217a3.74825,3.74825,0,0,1-.23684-2.46118,4.1496,4.1496,0,0,1,.48522-1.16626,3.45414,3.45414,0,0,1,.83111-.92823c-.18857.37256-.39367.71241-.5364,1.08155a5.29555,5.29555,0,0,0-.35983,1.11084A7.86861,7.86861,0,0,0,310.72875,145.72217Z"/><path fill="#1e1d22" d="M307.5545,147.37266a9.99569,9.99569,0,0,1,.94831-4.19655c.85465-1.81477,1.92-4.294,3.75388-4.34191,1.35121-.03526,1.91429-.35395,2.3117.97428.65656,2.19725-.889,4.47027-1.965,6.05351-1.54058,2.26533-2.74987,2.70188-2.87964,4.3314-.09915,1.24308,3.28488,4.00406,3.99038,3.56291,1.43815-.89928.88408-3.91756,5.098-10.73281,2.6612-4.30351,3.80406-5.068,4.26294-7.83447.16286-.98226.83719-5.04883-1.46813-7.59324-1.06932-1.18018-1.74147-.88695-6.57026-3.32119a41.071,41.071,0,0,1-3.91675-2.13127c-3.814-2.425-3.652-3.53114-5.92418-4.34341-2.05264-.73368-2.236.15133-6.21527-.35076-3.83653-.484-4.12116-1.36421-5.93549-.97475-3.15008.676-4.85433,3.87928-5.312,4.74a10.66342,10.66342,0,0,0-1.52338,4.89311,9.61972,9.61972,0,0,0,1.55693,4.9639c.46817.54492,2.70064-2.26834,3.8841-3.30386,1.16039-1.01446,2.36694-.4873,4.04442-.27061,1.6356.21129,1.47777,1.22822,3.84735,2.28776.84428.37746,4.416-.94583,5.40786,1.04811,1.05684,2.12451,1.9678,2.434,1.28129,4.29983-.42893,1.1657-.30948,2.64082-.07067,5.59123.17118,2.11732-2.012,9.328-2.012,9.328C303.4357,151.29393,307.5332,150.60988,307.5545,147.37266Z"/><path fill="#f73c4f" d="M316.33558 163.87089s-.26547 9.8225-6.10587 17.654a10.75378 10.75378 0 00-10.48618-3.58388s14.76407-12.25207 14.10445-14.07007zM297.75248 178.60464c-4.77851-4.77851-9.29155 0-9.29155 0-1.19462-10.88439 1.59284-12.34449 1.59284-12.34449l5.99369-2.38926z"/><path fill="#b02336" d="M290.05377 166.26025a5.2581 5.2581 0 00-1.267 2.832 18.56372 18.56372 0 00-.30838 3.14062c-.02227 1.05493-.01754 2.11206.04956 3.1687.05251 1.05737.17824 2.10986.257 3.16748l-.56082-.18823a8.31945 8.31945 0 012.24532-1.53833 5.89173 5.89173 0 012.64608-.58838 5.30937 5.30937 0 012.59365.6853 7.20854 7.20854 0 011.10086.74585c.33881.2815.63326.61377.9425.91944-.354-.26075-.68505-.5437-1.04032-.78809a6.94991 6.94991 0 00-1.13446-.60669 5.18107 5.18107 0 00-2.45357-.47339 6.32188 6.32188 0 00-2.39827.64429 7.75732 7.75732 0 00-2.02793 1.44751l-.48339.48755-.0776-.67578a37.86668 37.86668 0 01-.212-6.43555 18.99529 18.99529 0 01.52049-3.19434 8.4008 8.4008 0 01.59112-1.51294A3.00955 3.00955 0 01290.05377 166.26025zM316.33559 163.87085a28.18319 28.18319 0 01-.42048 4.72583 33.98417 33.98417 0 01-1.12483 4.62573 31.288 31.288 0 01-1.79784 4.4209 26.2693 26.2693 0 01-2.51517 4.06592l-.23622.33325-.2617-.33691a9.10032 9.10032 0 00-2.05345-1.88575 10.14091 10.14091 0 00-2.50949-1.30419 11.535 11.535 0 00-2.78621-.60572 14.843 14.843 0 00-2.88667.031 12.63178 12.63178 0 012.90156-.28882 10.1921 10.1921 0 012.9065.45459 10.5611 10.5611 0 012.69274 1.2395 9.61691 9.61691 0 012.2356 1.9978l-.49767-.0039a32.387 32.387 0 004.25632-8.30249A41.15037 41.15037 0 00316.33559 163.87085z"/><path fill="#d8a935" d="M268.50284,165.00925c-.074-.96255,2.10825-2.06375,2.47428-2.24841a6.83311,6.83311,0,0,1,2.72919-.70029,7.26474,7.26474,0,0,1,3.82324.68417,7.15047,7.15047,0,0,1,1.88581,1.36748c.49962.50256,1.99451,2.00611,1.70864,2.78536C280.42205,168.81185,268.67028,167.18931,268.50284,165.00925Z"/><path fill="#dd765e" d="M246.47493,154.34744l2.13392-.80979s2.09626.11578,1.00555,2.23089a4.4743,4.4743,0,0,1-3.24913,2.35014l-3.83521.41762Z"/><path fill="#160b07" d="M267.00833,163.69852c-8.99255-6.62147-32.05608-11.51953-33.059-11.75843a1.18051,1.18051,0,1,0-.54677,2.29683c.24008.057,18.432,4.77876,32.54554,11.77078.58944.85782,2.18343,1.9475,5.73093,3.25753,9.82415,3.62782,12.98236-3.35719,12.98236-3.35719Z"/><path fill="#f9977a" d="M238.76459,171.96908l-4.23531-6.65414a4.74818,4.74818,0,0,1-.70581-3.1393h0a6.45153,6.45153,0,0,1,3.42905-4.9247l7.8927-4.09741s2.20674-.29481.96945,2.29118l-3.58461,3.09159,6.831-.74383s2.03785,1.05448-.30962,2.47369c0,0,5.27078-.13971,1.5878,2.82538l-4.00593.98322.365.30206a6.93992,6.93992,0,0,1,2.43015,6.43344l-3.179,20.05391,17.52817-7.28487,5.92159,17.01494L241.99643,210.725A9.20863,9.20863,0,0,1,230.06,199.28015Z"/><path fill="#dd765e" d="M242.94043 162.1543a.28337.28337 0 01-.07178-.55762l6.11084-1.60449a.28365.28365 0 11.14356.54883l-6.11084 1.60449A.30383.30383 0 01242.94043 162.1543zM243.52979 206.10059a1.69752 1.69752 0 01-.2085-.01368.28348.28348 0 01-.24609-.3164.27975.27975 0 01.3164-.2461.98054.98054 0 00.12988.00782c1.50977 0 2.27588-3.36719 2.44678-4.7041a.28356.28356 0 01.5625.07226C246.50293 201.11816 245.84082 206.10059 243.52979 206.10059z"/><path fill="#bababa" d="M273.03853 142.74194a3.59456 3.59456 0 00-1.3783 1.29956 2.12388 2.12388 0 00-.17285 1.7522 11.52929 11.52929 0 00.7823 1.73169 5.471 5.471 0 00.51479.781 4.44565 4.44565 0 01.56868.86181 6.0925 6.0925 0 01.562 1.96436 3.84185 3.84185 0 01-.36331 2.02368 3.78831 3.78831 0 01-1.317 1.54419 3.526 3.526 0 01-1.89481.56128 3.6458 3.6458 0 002.81147-2.27857 3.82909 3.82909 0 00.25-1.801 5.62373 5.62373 0 00-.55894-1.7688 3.88043 3.88043 0 00-.48932-.78052 6.02786 6.02786 0 01-.539-.8667 8.6037 8.6037 0 01-.74762-1.86548 2.46916 2.46916 0 01.36081-2.008A3.41743 3.41743 0 01273.03853 142.74194zM278.3168 146.988a3.59379 3.59379 0 00-1.37829 1.29931 2.1238 2.1238 0 00-.17285 1.7522 11.53076 11.53076 0 00.7823 1.73193 5.47091 5.47091 0 00.51478.781 4.44435 4.44435 0 01.56868.86182 6.09127 6.09127 0 01.56206 1.96411 3.8409 3.8409 0 01-.36333 2.02368 3.7867 3.7867 0 01-1.317 1.54419 3.524 3.524 0 01-1.8948.56152 3.64558 3.64558 0 002.81146-2.27881 3.8284 3.8284 0 00.25-1.801 5.62244 5.62244 0 00-.55893-1.76856 3.88226 3.88226 0 00-.48933-.78076 6.01463 6.01463 0 01-.539-.8667 8.60162 8.60162 0 01-.74761-1.86523 2.46894 2.46894 0 01.3608-2.00806A3.414 3.414 0 01278.3168 146.988zM281.67319 139.90625a3.59437 3.59437 0 00-1.37831 1.29956 2.12392 2.12392 0 00-.17286 1.7522 11.54318 11.54318 0 00.78232 1.73169 5.46861 5.46861 0 00.51479.781 4.446 4.446 0 01.56868.86182 6.093 6.093 0 01.562 1.96411 3.84233 3.84233 0 01-.36331 2.02393 3.78765 3.78765 0 01-1.317 1.54394 3.524 3.524 0 01-1.8948.56153 3.64577 3.64577 0 002.81147-2.27857 3.83 3.83 0 00.25-1.80127 5.62429 5.62429 0 00-.55895-1.76855 3.889 3.889 0 00-.48931-.78076 6.00213 6.00213 0 01-.539-.8667 8.60092 8.60092 0 01-.74762-1.86524 2.46919 2.46919 0 01.36081-2.00806A3.41738 3.41738 0 01281.67319 139.90625z"/><circle cx="292.922" cy="154.067" r="2.728" fill="#dd2f22"/><path fill="#1e1d22" d="M292.26109,148.08c-2.17455-.22022-2.51035-1.3364-6.5993,3.37668,0,0,4.31459-1.03934,12.56456,1.54373C298.22635,153.00039,295.37458,148.39528,292.26109,148.08Z"/><path fill="#f73c4f" d="M238.76459,171.96908l10.36573.72237-2.88079,18.17272,16.57621-9.35105L274.764,200.21975,242.2286,210.88682a9.48794,9.48794,0,0,1-12.34434-11.84163Z"/><path fill="#b02336" d="M273.56372 194.13477c.733 1.15454 1.39975 2.342 2.05647 3.53466.65813 1.1919 1.26194 2.41089 1.89557 3.615.58472 1.22852 1.19551 2.4441 1.75574 3.68482.55969 1.24121 1.10992 2.48706 1.59273 3.7666-.73395-1.154-1.40045-2.3418-2.05753-3.53418-.65651-1.19263-1.26246-2.41064-1.8945-3.61548-.58311-1.22925-1.19606-2.44385-1.75468-3.68555C274.59747 196.65991 274.04749 195.41382 273.56372 194.13477zM325.59641 187.23242a37.77792 37.77792 0 011.97135-5.21191 40.37964 40.37964 0 012.68153-4.90405 23.61087 23.61087 0 013.55452-4.33692 10.77517 10.77517 0 014.80077-2.80273 12.73677 12.73677 0 00-4.436 3.17309 26.3038 26.3038 0 00-3.35423 4.33545 50.63712 50.63712 0 00-2.7824 4.76343C327.17375 183.8811 326.36714 185.54419 325.59641 187.23242zM324.00357 192.011a89.7336 89.7336 0 00.36742 12.5852 45.50729 45.50729 0 001.02169 6.19727 19.31357 19.31357 0 002.21843 5.80615l.02931.04614.00017.05445.01977 6.63647.00056.186-.18639.01879-34.10318 3.42017.1191-.57568a5.6585 5.6585 0 012.15164 3.55322 12.77722 12.77722 0 01.17051 4.07934c-.08371.67164-.18715 1.34278-.3201 2.00416-.17006.65234-.29278 1.31958-.50445 1.95825-.37629 1.29419-.86054 2.54614-1.35077 3.79565l-.29573-.44214 34.89292.10449 8.72323.02637 4.36161.01294a15.28138 15.28138 0 004.28765-.29883 8.08194 8.08194 0 003.63734-2.17822 8.3878 8.3878 0 002.04874-3.74145 36.445 36.445 0 001.24383-8.604A36.52139 36.52139 0 01351.44 235.2981a8.57915 8.57915 0 01-2.0299 3.85937 8.348 8.348 0 01-3.71848 2.31372 14.65612 14.65612 0 01-4.37233.35938l-4.36161.01318-8.72323.02612-34.89292.1045-.46675.00146.17089-.4436c.47512-1.23365.94446-2.46851 1.30469-3.73658a25.13924 25.13924 0 00.80284-3.84838 12.14078 12.14078 0 00-.13454-3.86573 5.14087 5.14087 0 00-1.82605-3.157l-.72278-.49634.8419-.07934 34.123-3.2168-.18564.20459.01978-6.63647.02938.10009a19.33389 19.33389 0 01-2.22424-5.93261 45.77447 45.77447 0 01-.92014-6.25049A89.84152 89.84152 0 01324.00357 192.011z"/><path fill="#b02336" d="M311.26087 239.79614a21.52341 21.52341 0 00-.01163-3.94214 17.05163 17.05163 0 00-.78195-3.812 16.33117 16.33117 0 00-.66871-1.82373c-.29878-.57471-.5737-1.16382-.92611-1.71118a19.99989 19.99989 0 00-2.38538-3.13062 12.35008 12.35008 0 012.8194 2.845 12.82078 12.82078 0 011.80428 3.61743 15.01279 15.01279 0 01.65489 3.9851A12.91515 12.91515 0 01311.26087 239.79614zM342.05573 233.823a35.97506 35.97506 0 00-3.11042-3.33472 28.63686 28.63686 0 00-3.50426-2.87915 29.75147 29.75147 0 00-3.87734-2.3269 22.64561 22.64561 0 00-4.1821-1.62134l-.93264-.25195.86532-.3733a21.32893 21.32893 0 014.03188-1.25293 16.84478 16.84478 0 014.19591-.38085 12.43837 12.43837 0 014.111.89941 9.86364 9.86364 0 013.33179 2.49561 10.39924 10.39924 0 00-3.45059-2.20215 12.37711 12.37711 0 00-4.0046-.69117 19.50683 19.50683 0 00-4.05568.47168 20.75164 20.75164 0 00-3.87867 1.2627l-.06732-.62524a20.88264 20.88264 0 014.31666 1.71411 26.24358 26.24358 0 013.91138 2.45019 27.93085 27.93085 0 016.29967 6.646zM268.65248 197.32056a30.19749 30.19749 0 014.43126 1.82983 29.84823 29.84823 0 014.13023 2.43433 29.84843 29.84843 0 01-4.43124-1.83008A30.19717 30.19717 0 01268.65248 197.32056zM290.15578 166.26025a5.2581 5.2581 0 00-1.267 2.832 18.56475 18.56475 0 00-.30838 3.14062c-.02228 1.05493-.01755 2.11206.04957 3.1687.05251 1.05737.17824 2.10986.257 3.16748l-.56082-.18823a8.3195 8.3195 0 012.24533-1.53833 5.89173 5.89173 0 012.64608-.58838 5.30937 5.30937 0 012.59365.6853 7.20854 7.20854 0 011.10086.74585c.3388.2815.63327.61377.94249.91944-.35395-.26075-.685-.5437-1.04031-.78809a6.94991 6.94991 0 00-1.13446-.60669 5.18107 5.18107 0 00-2.45357-.47339 6.32188 6.32188 0 00-2.39827.64429 7.75754 7.75754 0 00-2.02794 1.44751l-.48337.48755-.0776-.67578a37.86771 37.86771 0 01-.212-6.43555 18.99736 18.99736 0 01.52051-3.19434 8.40076 8.40076 0 01.59111-1.51294A3.00955 3.00955 0 01290.15578 166.26025zM316.43759 163.87085a28.18108 28.18108 0 01-.42047 4.72583 33.98269 33.98269 0 01-1.12483 4.62573 31.28571 31.28571 0 01-1.79785 4.4209 26.26771 26.26771 0 01-2.51516 4.06592l-.23622.33325-.26169-.33691a9.10079 9.10079 0 00-2.05346-1.88575 10.14091 10.14091 0 00-2.50949-1.30419 11.535 11.535 0 00-2.78622-.60572 14.84285 14.84285 0 00-2.88666.031 12.6318 12.6318 0 012.90155-.28882 10.192 10.192 0 012.9065.45459 10.56117 10.56117 0 012.69275 1.2395 9.61716 9.61716 0 012.23561 1.9978l-.49768-.0039a32.387 32.387 0 004.25632-8.30249A41.1498 41.1498 0 00316.43759 163.87085zM298.65091 178.60474l1.35333 23.6499q.30992 5.91138.76808 11.81152c.13975 1.96729.31079 3.93286.53451 5.89063.10074.98071.19612 1.96289.36 2.93432.08285.48487.12482.98047.24148 1.458l.34546 1.43921a62.57127 62.57127 0 01-1.999-11.67554c-.41284-3.93261-.66449-7.87671-.92416-11.81884-.20641-3.94581-.3952-7.89161-.51048-11.84009l-.139-5.92334zM242.273 194.02856a16.885 16.885 0 01-.60856 5.87671 11.99238 11.99238 0 01-1.14595 2.76148 6.60712 6.60712 0 01-1.98842 2.20971 10.36547 10.36547 0 001.52029-2.45214 18.861 18.861 0 00.96509-2.70508c.277-.92114.48572-1.86548.69048-2.814C241.89868 195.95459 242.09811 194.99927 242.273 194.02856z"/><rect width="8.369" height="132.758" x="184.1" y="245.412" fill="#935b50" transform="rotate(-180 188.285 311.79)"/><rect width="251.511" height="6.419" x="168.077" y="238.993" fill="#935b50" rx="1.443" transform="rotate(-180 293.832 242.202)"/><rect width="8.369" height="132.758" x="394.527" y="245.412" fill="#935b50" transform="rotate(-180 398.712 311.79)"/><path fill="#c38f86" d="M180.40516,245.41173H406.6873a2.88575,2.88575,0,0,1,2.88575,2.88575V266.4071a0,0,0,0,1,0,0H177.51941a0,0,0,0,1,0,0V248.29748A2.88575,2.88575,0,0,1,180.40516,245.41173Z" transform="rotate(-180 293.546 255.91)"/><path fill="#d8a935" d="M186.0936,232.35133s18.72-19.62,38.16-2.52Z"/><polygon fill="#c6c6c6" points="222.884 238.897 188.534 238.897 178.534 228.331 232.884 228.331 222.884 238.897"/><path fill="#bababa" d="M216.61327 208.2937a3.41506 3.41506 0 011.45576 1.3418 2.46916 2.46916 0 01.10861 2.03735 8.59943 8.59943 0 01-.97349 1.75781 6.00846 6.00846 0 01-.64249.79322 3.88156 3.88156 0 00-.58249.71386 5.62 5.62 0 00-.77427 1.68555 3.82879 3.82879 0 00.02436 1.81812 3.64514 3.64514 0 002.5067 2.6101 3.52342 3.52342 0 01-1.81041-.79223 3.78885 3.78885 0 01-1.115-1.6958 3.84189 3.84189 0 01-.10918-2.05323 6.08989 6.08989 0 01.80165-1.87915 4.44659 4.44659 0 01.67131-.78466 5.47348 5.47348 0 00.60779-.71094 11.53779 11.53779 0 00.99133-1.6211 2.12413 2.12413 0 00.0461-1.76025A3.5941 3.5941 0 00216.61327 208.2937zM206.92857 196.6416a3.41445 3.41445 0 011.45575 1.34155 2.46983 2.46983 0 01.10862 2.0376 8.59994 8.59994 0 01-.9735 1.75781 6.02412 6.02412 0 01-.64249.79322 3.88033 3.88033 0 00-.58249.71362 5.62517 5.62517 0 00-.77426 1.68555 3.82974 3.82974 0 00.02436 1.81836 3.64552 3.64552 0 002.50669 2.6101 3.52361 3.52361 0 01-1.81039-.79248 3.78668 3.78668 0 01-1.115-1.69555 3.84189 3.84189 0 01-.10916-2.05323 6.09316 6.09316 0 01.80163-1.87939 4.45385 4.45385 0 01.67131-.78442 5.47038 5.47038 0 00.60779-.71094 11.52443 11.52443 0 00.99133-1.62134 2.12363 2.12363 0 00.04612-1.76A3.59259 3.59259 0 00206.92857 196.6416zM196.5836 205.43774a3.41607 3.41607 0 011.45575 1.34156 2.46976 2.46976 0 01.10861 2.03759 8.59977 8.59977 0 01-.97349 1.75782 6.02469 6.02469 0 01-.64249.79321 3.8817 3.8817 0 00-.58249.71387 5.61972 5.61972 0 00-.77426 1.68554 3.82891 3.82891 0 00.02435 1.81812 3.64558 3.64558 0 002.5067 2.61011 3.52366 3.52366 0 01-1.81039-.79248 3.78676 3.78676 0 01-1.115-1.69556 3.84176 3.84176 0 01-.10916-2.05322 6.08926 6.08926 0 01.80163-1.87915 4.44709 4.44709 0 01.67131-.78467 5.47038 5.47038 0 00.60779-.71094 11.52479 11.52479 0 00.99133-1.62134 2.12363 2.12363 0 00.04612-1.76A3.59272 3.59272 0 00196.5836 205.43774z"/><polygon fill="#ffba55" points="254.82 239.016 244.892 239.016 246.153 236.054 253.559 236.054 254.82 239.016"/><path fill="#7ca1b1" d="M236.03487,223.37509h27.23882a0,0,0,0,1,0,0v.03532a13.6194,13.6194,0,0,1-13.6194,13.6194h0a13.6194,13.6194,0,0,1-13.6194-13.6194v-.03532A0,0,0,0,1,236.03487,223.37509Z"/><rect width="94.32" height="127.8" x="50" y="231.27" fill="#e19974"/><rect width="112.32" height="3.6" x="41" y="220.47" fill="#935b50"/><rect width="69.48" height="18.72" x="62.42" y="236.67" fill="#d6694b"/><polygon fill="#d6694b" points="144.32 231.27 50 231.27 41 224.07 153.32 224.07 144.32 231.27"/><rect width="69.48" height="82.44" x="62.42" y="265.11" fill="#d6694b"/><rect width="50.04" height="59.76" x="72.14" y="276.45" fill="#935b50"/><rect width="104.04" height="5.24" x="45.14" y="359.07" fill="#935b50"/><polygon fill="#e19974" points="64 378.17 60.14 378.17 55.14 364.31 69 364.31 64 378.17"/><polygon fill="#e19974" points="134.18 378.17 130.32 378.17 125.32 364.31 139.18 364.31 134.18 378.17"/><circle cx="96.44" cy="246.03" r="3.24" fill="#935b50"/><circle cx="114.94" cy="306.33" r="3.24" fill="#e19974"/><path fill="#d6694b" d="M190.16539,164.7386H49.18215V4.70936H190.16539ZM54.19176,159.72981h130.964V9.71816H54.19176Z"/><rect width="150.871" height="7.499" x="44.238" y="164.783" fill="#935b50" rx="1.352"/><rect width="130.964" height="5.999" x="54.192" y="58.004" fill="#e19974"/><rect width="61.744" height="1.048" x="66.427" y="105.583" fill="#e19974" transform="rotate(-43.829 97.299 106.106)"/><rect width="50.886" height="1.048" x="68.258" y="83.975" fill="#e19974" transform="rotate(-42.773 93.701 84.5)"/><path fill="#e6952a" d="M58.38358,93.47705a5.70432,5.70432,0,0,1-2.50483.52368,5.63962,5.63962,0,0,1-2.50479-.52368,5.64305,5.64305,0,0,1,2.50479-.52368A5.71108,5.71108,0,0,1,58.38358,93.47705Z"/><polygon fill="#e19974" points="151.651 159.654 136.836 159.654 131.845 133.419 156.642 133.419 151.651 159.654"/><polygon fill="#d6694b" points="156.072 136.414 156.642 133.419 131.845 133.419 132.415 136.414 156.072 136.414"/><rect width="4.426" height="4.426" x="135.808" y="147.217" fill="#d6694b" transform="rotate(45 138.02 149.43)"/><rect width="4.426" height="4.426" x="142.067" y="147.217" fill="#d6694b" transform="rotate(45 144.28 149.43)"/><rect width="4.426" height="4.426" x="148.253" y="147.217" fill="#d6694b" transform="rotate(45 150.466 149.43)"/><path fill="#558031" d="M150.01429,111.34014s1.30089,18.37845-6.32376,22.27334C143.69053,133.61348,141.0509,126.64558,150.01429,111.34014Z"/><path fill="#849f4c" d="M125.411,119.23472s12.47356,2.1522,18.27953,14.37876C143.69053,133.61348,129.97387,128.95474,125.411,119.23472Z"/><path fill="#a6b862" d="M129.83379,143.308s6.34366-9.49036,13.85674-9.69455C143.69053,133.61348,142.55947,141.255,129.83379,143.308Z"/><path fill="#849f4c" d="M137.6588,113.95978s8.80185,8.0364,6.03173,19.6537C143.69053,133.61348,138.81463,128.44509,137.6588,113.95978Z"/><path fill="#a6b862" d="M143.69053,133.61348s3.09242-11.32,18.72529-14.2228C162.41582,119.39068,158.89773,129.69776,143.69053,133.61348Z"/><path fill="#849f4c" d="M166.557,130.65434s-11.92744-4.91718-22.86647,2.95914C143.69053,133.61348,158.2328,135.35942,166.557,130.65434Z"/><path fill="#558031" d="M166.44849 142.10208s-5.7592-9.22489-22.758-8.4886zM118.9863 132.12029s15.66444-5.80832 24.90922 1.21547C143.89552 133.33576 135.11735 138.17087 118.9863 132.12029z"/><path fill="#558031" d="M131.83152,115.30179s13.97745,9.88583,11.97236,18.31973C143.80388,133.62152,134.10677,125.84649,131.83152,115.30179Z"/><path fill="#849f4c" d="M156.35051,143.45324s-11.52282-1.96719-12.66-9.83976C143.69053,133.61348,152.10993,134.03049,156.35051,143.45324Z"/><path fill="#ffba55" d="M35.95309,3.64114S24.1495,112.27789,30.96674,181.46408a3.43742,3.43742,0,0,0,.34773,1.23806c.646,1.25949,2.49147,3.27384,7.02989-.30394a3.72926,3.72926,0,0,1,1.54746-.747,4.805,4.805,0,0,1,5.77706,2.7659c1.9761,4.42791,7.41035,2.6165,8.89242-1.171,1.03767-2.65182,4.17419-1.9132,5.96187-1.23182a3.7482,3.7482,0,0,0,2.55092.05461c1.88585-.64145,5.34726-1.28305,6.63726,2.00059,1.434,3.65028,4.10657,1.21132,5.15788.03666a3.55676,3.55676,0,0,1,2.31611-1.18582,8.87375,8.87375,0,0,1,4.71192,1.14916c3.11423,1.55711,5.10165,1.086,6.06374.61606a3.29426,3.29426,0,0,0,.877-.65952c.62516-.629,2.77507-2.34432,6.06856-.28589a5.02567,5.02567,0,0,0,4.777.54868,3.60476,3.60476,0,0,1,3.81048.74614c1.56327,1.4496,3.83062,2.69454,5.60067.15794a3.593,3.593,0,0,1,3.57737-1.51047,5.47842,5.47842,0,0,1,2.48945,1.21043c1.95393,1.60912,4.0683-.31153,5.16728-1.61853a3.56017,3.56017,0,0,0,.81928-2.11928c.53044-10.29891,4.40212-91.17691-.05828-177.51386Z"/><path fill="#ffba55" d="M127.73165,3.64114s-10.1,104.51338,44.79145,115.93081l-6.26352,38.13674a2.8452,2.8452,0,0,0,2.80759,3.30632h.76624c1.54291,0,2.01056,3.34522,7.50871,2.40349a2.85447,2.85447,0,0,1,3.35981,2.79566v7.89753a2.85119,2.85119,0,0,0,2.47518,2.82171,22.08263,22.08263,0,0,0,2.78355.21946,2.83407,2.83407,0,0,1,2.78906,3.27453c-.0298.18433-.06207.36684-.097.54538a2.84009,2.84009,0,0,0,2.4069,3.33341,7.42334,7.42334,0,0,0,3.11038-.05848,2.984,2.984,0,0,1,2.43808.177c1.68579.97038,4.59384,1.906,7.13369-.96915a2.78328,2.78328,0,0,0,.67329-1.84338V3.64114Z"/><path fill="#f73c4f" d="M39.90527 6.71509L38.35934 48.94067c-.49261 14.075-1.01168 28.14893-1.38821 42.22657q-.671 21.11316-.95 42.23364c-.08908 7.03955-.13049 14.08057-.01242 21.11841l.10333 5.27807c.0694 1.75757.11557 3.51734.21472 5.27368.105 1.75635.20691 3.51319.40625 5.26124.0658.87866.21179 1.74511.35547 2.61328a16.42614 16.42614 0 00.62116 2.56079 16.46054 16.46054 0 01-.67612-2.5503c-.16232-.86621-.32724-1.73315-.41162-2.61035-.23679-1.74731-.37616-3.50366-.5185-5.26-.13656-1.75683-.22009-3.5166-.3269-5.27539l-.21536-5.28051c-.21067-7.04346-.247-14.08912-.24372-21.13355.02692-14.08984.36451-28.17432.74033-42.25586.45309-14.07959.95843-28.15674 1.60168-42.228l1.02869-21.10376zM53.95749 6.71509l-1.47943 19.512c-.46 6.5044-.92813 13.00733-1.27057 19.51685q-.582 9.75989-.78775 19.532l-.03705 4.88525c-.01459 1.62891.06839 3.25415.09354 4.88282-.01065 1.63159.1727 3.24853.255 4.87622a21.011 21.011 0 00.26373 2.426l.32776 2.42456C49.91922 78.37964 49.8038 71.78857 49.716 65.271c-.00332-6.53247.26212-13.05835.57911-19.57862.41931-6.5144.87423-13.02563 1.4848-19.52319C52.39029 19.67188 53.08423 13.18262 53.95749 6.71509zM52.0087 173.146c-.474-5.96924-.80054-11.94776-1.06967-17.92871-.26944-5.981-.41761-11.9668-.55451-17.95337-.04709-5.988-.08893-11.97779.07681-17.967a119.84651 119.84651 0 011.54737-17.89405q-.54337 4.46082-.66095 8.94116c-.12854 2.9856-.1543 5.97608-.1828 8.96485q-.02972 8.96923.13327 17.94092c.06033 5.98169.2222 11.96215.34094 17.94458zM72.401 8.91064q-.42984 8.29872-.76333 16.60083l-.708 16.60059c-.43372 11.06812-.85868 22.13623-1.08817 33.2085-.30157 11.07007-.43429 22.145-.30661 33.21484.05722 5.53491.20294 11.07007.55609 16.59229.36319 5.50927.73151 11.07836 2.31006 16.40087-1.72308-5.28222-2.24466-10.86132-2.75662-16.36865-.4462-5.52832-.66995-11.07007-.81314-16.61133-.27368-11.08422-.13346-22.17065.09671-33.25024.30612-11.07837.7175-22.15283 1.30191-33.21851l.96362-16.59277Q71.76 17.19605 72.401 8.91064z"/><polygon fill="#f73c4f" points="84.697 8.911 84.59 24.175 84.388 39.438 83.836 69.96 83.072 100.477 82.615 115.734 82.062 130.989 82.167 115.725 82.369 100.462 82.923 69.94 83.688 39.423 84.145 24.166 84.697 8.911"/><path fill="#f73c4f" d="M91.28369 11.54541l.97437 17.55688.74749 17.56812c.44315 11.7146.71531 23.4353.93461 35.15747.12225 11.72363.15921 23.45044-.09818 35.17456-.32208 11.71362-.76642 23.4707-2.55829 35.06519l.48453-4.36866c.164-1.45532.33938-2.90844.4035-4.37329.15824-2.92578.428-5.84179.49445-8.77148.09912-2.92725.24612-5.85181.31524-8.77954l.157-8.78516q.16718-17.57264-.11191-35.14868c-.14276-11.717-.42862-23.43237-.72107-35.14819l-.49185-17.573zM100.94461 11.54541l.8783 18.27.65814 18.27954c.395 12.18823.60705 24.38159.77466 36.57593.10516 12.19482.08944 24.39282-.17923 36.5874-.08991 3.0481-.13837 6.09692-.26227 9.14429l-.38144 9.14062-.61581 9.12818c-.25742 3.03857-.584 6.07129-.87235 9.105.2142-3.04175.46622-6.07886.649-9.11988l.39187-9.133.2511-9.13745c.08188-3.04566.08838-6.09375.13626-9.14014.12278-12.18726.14582-24.377-.03091-36.56592-.09106-12.18945-.3169-24.37817-.56119-36.56689zM108.40985 13.74121l1.0885 14.6333L110.453 43.0166c.61167 9.76319 1.12693 19.53174 1.63684 29.301.43866 9.77246.89173 19.54516 1.16465 29.32568.23489 9.77637.56323 19.574-.01422 29.346l.08825-3.66626c.019-1.22144-.02405-2.44483-.033-3.66651-.01416-2.44409-.11319-4.88769-.19137-7.33081q-.21355-7.32971-.55292-14.65722-.62756-14.65467-1.37409-29.3064l-1.42358-29.30664-.69934-14.655zM113.42535 175.50635c.09525-2.84888.2436-5.68823.36567-8.52832l.34-8.51294c.09336-2.83618.14572-5.67114.1355-8.50513-.02753-1.41479-.054-2.83227-.18231-4.24048a21.0758 21.0758 0 00-.65891-4.19092 27.1464 27.1464 0 011.54447 8.40625c.17682 2.85352.14834 5.71.07507 8.56055-.1098 2.84937-.27814 5.69507-.555 8.53125C114.22131 169.86279 113.89618 172.69409 113.42535 175.50635zM79.86627 173.146c-.00531-2.8208.08948-5.63526.1994-8.44849.09952-2.81421.27076-5.62354.44223-8.43286.19324-2.80786.38831-5.61572.654-8.41895.25656-2.80395.52734-5.60669.9-8.40307.00675 2.821-.08841 5.63525-.19781 8.44873-.10025 2.814-.27112 5.62353-.44385 8.43261-.19443 2.80787-.38916 5.61573-.65558 8.41895C80.5087 167.54688 80.23752 170.34961 79.86627 173.146zM62.301 24.71948L61.22882 51.28662c-.33578 8.85523-.66678 17.71-.87427 26.56738-.28936 8.85547-.4208 17.71436-.46325 26.572-.04721 4.42944.01886 8.85742.08639 13.28637l.18173 6.64185.385 6.635-.60852-6.62207-.4057-6.6399c-.16009-4.43115-.304-8.8645-.34265-13.29858-.10336-8.86816.03559-17.73633.25351-26.59961.28409-8.86181.60147-17.72241 1.08795-26.57446L61.314 37.98022zM134.31863 8.91064c.10364 5.09082.45209 10.17164.9155 15.23731q.66435 7.60144 1.75485 15.15356a214.42778 214.42778 0 006.30646 29.79932c1.43594 4.86963 3.08252 9.67578 4.99634 14.37524a105.73248 105.73248 0 006.77893 13.60328 65.57929 65.57929 0 009.09717 12.14648 51.43426 51.43426 0 0011.86827 9.46777c-9.02329-4.80713-16.28212-12.52783-21.56648-21.248-5.38834-8.71021-9.10773-18.32593-12.05118-28.08789A204.7739 204.7739 0 01136.295 39.39673 227.62035 227.62035 0 01134.31863 8.91064zM172.084 156.29443c.14218-2.60839.38385-5.2041.64059-7.79785.24639-2.595.56406-5.18091.882-7.76684.33952-2.58326.68091-5.16626 1.0925-7.74024.40248-2.575.81913-5.14844 1.33708-7.70874-.14075 2.6084-.38278 5.2041-.639 7.79785-.2471 2.595-.56442 5.18091-.88359 7.7666-.34076 2.583-.68178 5.166-1.09409 7.74C173.0175 151.1604 172.60048 153.73364 172.084 156.29443zM182.62312 158.51733c-.042-2.77954.01609-5.55395.08937-8.32763.06287-2.77417.19748-5.54444.33239-8.3147.15661-2.76929.31511-5.53833.54428-8.30371.22-2.76587.45427-5.531.79049-8.29053.04348 2.77979-.015 5.554-.08775 8.32764-.0636 2.77417-.19786 5.54443-.334 8.3147-.15787 2.76928-.316 5.53833-.54589 8.30371C183.19257 152.99268 182.95792 155.75757 182.62312 158.51733zM190.5275 173.146c-.18866-4.2815-.27706-8.563-.35025-12.84449-.07534-4.28173-.06841-8.56323-.10665-12.84472.03581-4.2815.03215-8.563.105-12.84449.07372-4.28173.16175-8.56323.35186-12.84472.19012 4.28149.27815 8.563.35186 12.84472.07288 4.2815.06923 8.563.10505 12.84449-.03824 4.28149-.03133 8.563-.10665 12.84472C190.80457 164.583 190.71617 168.8645 190.5275 173.146zM197.99274 175.50635c-.18866-4.18555-.27706-8.37085-.35025-12.5564-.07532-4.18555-.06841-8.37085-.10665-12.5564.03582-4.18554.03215-8.37109.105-12.55639.07372-4.18555.16175-8.3711.35186-12.5564.19012 4.1853.27815 8.37085.35186 12.5564.0729 4.1853.06923 8.37085.105 12.55639-.03824 4.18555-.03133 8.37085-.10665 12.5564C198.26981 167.1355 198.18141 171.3208 197.99274 175.50635z"/><path fill="#f73c4f" d="M146.61432 11.54541c.04355 4.66895.33871 9.32983.74133 13.97632q.58457 6.97155 1.56973 13.89795A214.80152 214.80152 0 00154.526 66.7876c1.221 4.49438 2.63883 8.93261 4.21249 13.31421 1.57447 4.38354 3.43219 8.65551 5.38981 12.87866a122.46965 122.46965 0 006.73 12.23315 104.2 104.2 0 008.25176 11.28443 104.46255 104.46255 0 01-8.62726-11.04053 121.575 121.575 0 01-6.98723-12.16895A151.11156 151.11156 0 01153.64493 67.03a203.26047 203.26047 0 01-5.41385-27.51709q-.86842-6.95983-1.31912-13.959C146.65659 20.88794 146.50955 16.21411 146.61432 11.54541zM159.78827 13.74121c.17114 4.23169.48108 8.45532.84869 12.67188q.51587 6.327 1.25217 12.63159c.98608 8.4021 2.17911 16.78271 3.84241 25.073a194.27622 194.27622 0 006.27 24.54638 108.96806 108.96806 0 004.57358 11.81153 76.96039 76.96039 0 006.048 11.1372 89.04231 89.04231 0 01-11.2877-22.72192c-1.42072-4.00122-2.61308-8.08032-3.67264-12.18872C166.59946 72.594 165.6467 68.457 164.8347 64.293q-2.39083-12.50061-3.64207-25.17334C160.35864 30.68311 159.842 22.21362 159.78827 13.74121zM184.37965 11.54541c-.62088 4.26367-1.11058 8.54419-1.54416 12.82813-.451 4.282-.83955 8.56982-1.1322 12.86376-.60022 8.585-.96393 17.19-.78732 25.78785a143.03958 143.03958 0 002.419 25.62133 61.15585 61.15585 0 003.63356 12.31861 29.93586 29.93586 0 007.072 10.6477 30.157 30.157 0 01-7.48206-10.468 61.27667 61.27667 0 01-3.91231-12.354 137.30987 137.30987 0 01-2.64389-25.75c-.10073-8.63428.2508-17.26611 1.00266-25.85864q.56842-6.44421 1.3887-12.86035C182.97511 20.0498 183.61235 15.78564 184.37965 11.54541z"/><path fill="#f73c4f" d="M171.2057 8.91064c-.13873 2.9004-.27446 5.79883-.35124 8.69922q-.15642 4.3484-.21785 8.698c-.08357 5.79785-.1046 11.59668.12251 17.38648.15661 5.791.54946 11.57519 1.26229 17.3186.36026 2.8706.8193 5.73022 1.44975 8.55371a44.78141 44.78141 0 002.565 8.28784c-2.62677-5.21338-3.80091-11.01684-4.71182-16.74511a159.84941 159.84941 0 01-1.4785-17.385c-.15139-5.81348-.144-11.62916.09053-17.4358C170.174 20.48315 170.54639 14.68213 171.2057 8.91064zM194.04056 17.69336c-.26431 5.36914-.515 10.73413-.70212 16.10034-.18045 5.366-.35548 10.73145-.35307 16.09693-.06467 5.36474.03065 10.73.33354 16.08081.14015 2.67651.37775 5.34716.74377 7.99951a39.01649 39.01649 0 001.73441 7.83569c-2.07926-4.99048-2.67545-10.44678-3.18013-15.78491-.45027-5.36987-.53851-10.75708-.54538-16.13672.07417-5.38013.23582-10.75757.56715-16.125C192.97246 28.39331 193.40012 23.032 194.04056 17.69336z"/><path fill="#f65b2b" d="M170.42132,125.28066c-.37166,0-.603-.01072-.679-.0143a2.74457,2.74457,0,0,1,.27964-5.482c.74958.03306,17.7906.57626,32.439-17.17413a2.74413,2.74413,0,1,1,4.233,3.49325C191.7007,124.27378,174.12364,125.28066,170.42132,125.28066Z"/><path fill="#f73c4f" d="M217.42432,4.09863H25.74316a.457.457,0,1,1,0-.91406H217.42432a.457.457,0,1,1,0,.91406Z"/><path fill="#f73c4f" d="M25.74316 7.17188a.45711.45711 0 01-.45752-.457V.457a.45752.45752 0 01.915 0V6.71484A.4571.4571 0 0125.74316 7.17188zM217.42432 7.17188a.45711.45711 0 01-.45752-.457V.457a.45752.45752 0 01.915 0V6.71484A.45711.45711 0 01217.42432 7.17188z"/><path fill="#fff" d="M383.72406,68.95243h51.30419a0,0,0,0,1,0,0v8.14531a0,0,0,0,1,0,0H383.72406a3.50483,3.50483,0,0,1-3.50483-3.50483V72.45725A3.50483,3.50483,0,0,1,383.72406,68.95243Z"/><path fill="#f65b2b" d="M436.63269,77.30624a.738.738,0,0,1-.738.738H382.64661c-2.03307,0-3.68681-2.233-3.68681-4.97819,0-2.74454,1.65374-4.97753,3.68681-4.97753H435.8947a.738.738,0,0,1,.738.738v.5809a.738.738,0,0,1-.738.738H382.64661c-1.19307,0-2.16349,1.31034-2.16349,2.92064,0,1.611.97042,2.9213,2.16349,2.9213H435.8947a.738.738,0,0,1,.738.738Z"/><path fill="#fff" d="M375.71963,58.9967h51.30419a0,0,0,0,1,0,0V67.142a0,0,0,0,1,0,0H375.71963a3.50483,3.50483,0,0,1-3.50483-3.50483V62.50153a3.50483,3.50483,0,0,1,3.50483-3.50483Z"/><path fill="#ffba55" d="M428.62826,67.35051a.738.738,0,0,1-.738.738H374.64218c-2.03307,0-3.68681-2.233-3.68681-4.9782,0-2.74454,1.65374-4.97753,3.68681-4.97753h53.24808a.738.738,0,0,1,.738.738v.5809a.738.738,0,0,1-.738.738H374.64218c-1.19307,0-2.16349,1.31033-2.16349,2.92063,0,1.611.97042,2.9213,2.16349,2.9213h53.24808a.738.738,0,0,1,.738.738Z"/><path fill="#fff" d="M392.10438,49.041h51.30419a0,0,0,0,1,0,0v8.14531a0,0,0,0,1,0,0H392.10438a3.50483,3.50483,0,0,1-3.50483-3.50483V52.5458A3.50483,3.50483,0,0,1,392.10438,49.041Z"/><path fill="#f65b2b" d="M445.013,57.39478a.738.738,0,0,1-.738.738H391.02693c-2.03308,0-3.68681-2.233-3.68681-4.9782,0-2.74454,1.65373-4.97753,3.68681-4.97753H444.275a.738.738,0,0,1,.738.738v.5809a.738.738,0,0,1-.738.738H391.02693c-1.19307,0-2.16349,1.31033-2.16349,2.92063,0,1.611.97042,2.9213,2.16349,2.9213H444.275a.738.738,0,0,1,.738.738Z"/><path fill="#935b50" d="M291.01122 79.70687h7.62033a0 0 0 010 0V95.67371a1.46109 1.46109 0 01-1.46109 1.46109h-4.69816a1.46109 1.46109 0 01-1.46109-1.46109V79.70687A0 0 0 01291.01122 79.70687zM418.30343 79.70687h7.62033a0 0 0 010 0V95.67371a1.46109 1.46109 0 01-1.46109 1.46109h-4.69816a1.46109 1.46109 0 01-1.46109-1.46109V79.70687A0 0 0 01418.30343 79.70687z"/><path fill="#d6694b" d="M446.05139,81.41576H277.30805a1.70862,1.70862,0,1,1,0-3.41724H446.05139a1.70862,1.70862,0,0,1,0,3.41724Z"/><line x1="336.251" x2="329.178" y1="74.277" y2="74.277" fill="none" stroke="#fff" stroke-miterlimit="10" stroke-width=".854"/><line x1="336.251" x2="329.178" y1="70.86" y2="70.86" fill="none" stroke="#fff" stroke-miterlimit="10" stroke-width=".854"/><line x1="336.251" x2="329.178" y1="40.105" y2="40.105" fill="none" stroke="#fff" stroke-miterlimit="10" stroke-width=".854"/><line x1="336.251" x2="329.178" y1="36.687" y2="36.687" fill="none" stroke="#fff" stroke-miterlimit="10" stroke-width=".854"/><polygon fill="#e19974" points="422.967 48.11 412.639 48.11 409.16 29.822 426.446 29.822 422.967 48.11"/><polygon fill="#d6694b" points="426.049 31.909 426.446 29.822 409.16 29.822 409.557 31.909 426.049 31.909"/><rect width="3.085" height="3.085" x="411.922" y="39.441" fill="#d6694b" transform="rotate(45 413.465 40.983)"/><rect width="3.085" height="3.085" x="416.285" y="39.441" fill="#d6694b" transform="rotate(45 417.828 40.983)"/><rect width="3.085" height="3.085" x="420.598" y="39.441" fill="#d6694b" transform="rotate(45 422.14 40.983)"/><path fill="#558031" d="M421.82572,14.43023s.90687,12.81188-4.40838,15.52707C417.41734,29.9573,415.57721,25.09988,421.82572,14.43023Z"/><path fill="#849f4c" d="M404.67441,19.93366A18.74356,18.74356,0,0,1,417.41734,29.9573S407.85526,26.70963,404.67441,19.93366Z"/><path fill="#a6b862" d="M407.7576,36.71551s4.42226-6.61586,9.65974-6.75821C417.41734,29.9573,416.62886,35.2843,407.7576,36.71551Z"/><path fill="#849f4c" d="M413.21253,16.25641s6.1359,5.6023,4.20481,13.70089C417.41734,29.9573,414.01827,26.35434,413.21253,16.25641Z"/><path fill="#a6b862" d="M417.41734,29.9573s2.15577-7.89136,13.05367-9.91492C430.471,20.04238,428.0185,27.22759,417.41734,29.9573Z"/><path fill="#849f4c" d="M433.35789,27.89444s-8.31479-3.42784-15.94055,2.06286C417.41734,29.9573,427.555,31.17442,433.35789,27.89444Z"/><path fill="#558031" d="M433.28225 35.87483s-4.01482-6.43081-15.86491-5.91753zM400.19565 28.91637s10.91992-4.04906 17.36459.84732C417.56024 29.76369 411.44085 33.13432 400.19565 28.91637z"/><path fill="#558031" d="M409.15025,17.19195s9.74388,6.89156,8.34611,12.771C417.49636,29.9629,410.73636,24.54282,409.15025,17.19195Z"/><path fill="#849f4c" d="M426.24279,36.81674s-8.03272-1.37136-8.82545-6.85944C417.41734,29.9573,423.28662,30.248,426.24279,36.81674Z"/><path fill="none" stroke="#8b9d36" stroke-linecap="round" stroke-linejoin="round" stroke-width="1.788" d="M269.48208,45.64706s14.03451,10.34456,18.625,9.15925"/><line x1="285.095" x2="287.253" y1="25.978" y2="55.561" fill="none" stroke="#8b9d36" stroke-linecap="round" stroke-linejoin="round" stroke-width="1.788"/><path fill="none" stroke="#8b9d36" stroke-linecap="round" stroke-linejoin="round" stroke-width="1.788" d="M296.32711,56.34656s2.326-13.12415,14.50727-18.80821"/><path fill="#5e7c24" d="M295.25949 53.29772c-.72672-1.42325-4.63205-1.42522-7.12585.32336a6.82913 6.82913 0 00-2.40193 3.15187c-.42461 1.09374-1.1042 2.84385-.16007 4.04084a3.5431 3.5431 0 003.92314.72719 19.12278 19.12278 0 003.36279-3.31344C294.30428 56.39587 295.84526 54.445 295.25949 53.29772zM298.30214 53.13614c-.27214.71469.26779 1.534 1.281 3.071a14.75488 14.75488 0 003.52285 3.7177 4.203 4.203 0 004.96414.56561 4.021 4.021 0 001.84136-3.39434c-.01651-2.09386-1.80552-3.38951-2.48186-3.87927C304.15416 50.84453 298.96023 51.40861 298.30214 53.13614zM307.90985 39.72059c.23869-.40689.85725-.20016 2.24185-.40426a25.78665 25.78665 0 003.44293-1.05055 13.25005 13.25005 0 012.9625-.72741c.41962.002 2.79135.01272 3.60278 1.61638.85009 1.68-.72368 3.70214-.80057 3.79838-1.52143 1.90094-4.12078 1.80821-4.96414 1.778a7.664 7.664 0 01-5.36443-2.586C308.841 41.93262 307.49523 40.427 307.90985 39.72059zM286.05207 31.88114c-.8451-.42552-.35055-3.12907-.08015-4.60646a27.42187 27.42187 0 011.52122-4.60667c1.4011-3.6914 1.72081-4.08908 2.24185-4.2831a3.35071 3.35071 0 013.68315 1.69706c.92632 1.79242-.49368 4.05838-2.00164 6.46531C289.96826 28.85862 287.15128 32.43448 286.05207 31.88114z"/><path fill="#c4ce6e" d="M285.73171,38.99318c.6216-1.01153-.52213-2.98964-1.68128-4.04084-.973-.88241-1.96863-1.12224-3.68315-1.53549-1.92562-.46411-4.0452-.97492-4.64378-.0809-.57078.85237.5458,2.52685.80079,2.9094a7.07779,7.07779,0,0,0,3.28264,2.50536C281.51775,39.45883,284.92962,40.29826,285.73171,38.99318Z"/><path fill="#5e7c24" d="M285.81185 46.83241c.02281-.8048-1.14069-.97163-3.52285-2.90941-1.89109-1.53833-1.945-2.07325-3.04265-2.42446-1.68041-.53755-3.87405-.02565-4.24349 1.05055-.09036.26352-.07754.57811 1.36114 2.9094 1.11919 1.81347 1.69 2.72722 2.24186 3.071a5.2601 5.2601 0 004.00328.404C283.61409 48.69564 285.781 47.92307 285.81185 46.83241zM286.68741 37.53079c-.78471-.88853.00488-3.03574.96762-4.27253.80814-1.03819 1.748-1.44732 3.36658-2.15209 1.81783-.79153 3.81877-1.66273 4.56078-.886.70753.74056-.10706 2.584-.29306 3.00508a7.111 7.111 0 01-2.80676 3.038C290.91791 37.25784 287.7 38.67715 286.68741 37.53079zM287.26805 45.88235c-.15962-.78884.95811-1.1552 2.97455-3.47769 1.60075-1.84375 1.56265-2.38 2.58413-2.91661 1.56376-.8213 3.81194-.6979 4.35928.29812.13391.24389.1749.556-.84506 3.10236-.79347 1.98076-1.2 2.98-1.68511 3.41444a5.26778 5.26778 0 01-3.87476 1.09309C289.75057 47.33623 287.48429 46.95141 287.26805 45.88235zM274.4425 50.065c-.11229-.87692-1.5564-1.361-3.28264-1.93953-1.55966-.52264-2.79787-.93786-4.2435-.48493-.25564.08-2.52964.79229-2.72229 2.50536-.17288 1.53658 1.46648 2.65838 1.60136 2.74782a4.8434 4.8434 0 003.76307.404C271.80991 52.86452 274.60778 51.3549 274.4425 50.065z"/><path fill="#c4ce6e" d="M280.92786,54.1058c-1.20564-.86026-3.48116.59893-4.56386,1.29323a9.5712,9.5712,0,0,0-2.80221,2.74761c-.834,1.25159-1.62764,2.44288-1.20108,3.47524.61335,1.484,3.26114,1.46182,3.603,1.45459a5.75839,5.75839,0,0,0,3.92314-1.778,6.12527,6.12527,0,0,0,1.52143-3.071C281.554,57.55516,282.11763,54.95487,280.92786,54.1058Z"/><path fill="#8b9d36" d="M271.31993 45.86253c-.67829-.98631-.44068-1.68544-.72064-3.39433-.445-2.7167-1.39177-3.06462-1.04079-4.44489.27627-1.08629 1.21237-2.24579 2.24186-2.26289 1.44194-.02412 2.36956 2.20457 2.562 2.66693.69979 1.68105.44176 3.14661 0 5.65723-.28844 1.639-.50845 2.81228-1.20086 2.99029C272.49211 47.247 271.69524 46.4082 271.31993 45.86253zM301.98506 45.62006c.21394-.60529 1.3479-.69693 2.72229-.80808 1.71712-.13877 3.0042-.2429 4.2435.56562.19069.1243 2.19711 1.471 1.84135 3.07119-.278 1.25027-1.83158 1.9062-2.96228 1.93952-1.22692.03618-2.06115-.65747-3.603-1.93952C303.01216 47.4388 301.72161 46.36545 301.98506 45.62006z"/><path fill="#5e7c24" d="M303.98671,41.0136c-.3082-.07015-.32731-.4994-.72065-1.69727-.879-2.67614-1.567-2.91927-1.44107-4.04085.13944-1.24084,1.1635-2.56214,2.08157-2.50536,1.00082.06182,1.5994,1.744,1.84157,2.42468a5.243,5.243,0,0,1,.32036,2.50536C305.84392,39.43756,304.655,41.166,303.98671,41.0136Z"/><path fill="#8b9d36" d="M284.13035,29.376c-.46718.66252-3.11974-.12211-4.884-1.69728-.45045-.40206-2.44406-2.18221-1.92149-3.87927a1.99927,1.99927,0,0,1,1.60135-1.45459c.748-.01841,1.23431.74144,2.48207,2.586C283.974,28.72445,284.33517,29.08552,284.13035,29.376Z"/><path fill="#c4ce6e" d="M298.70242,47.23645c-1.34355.36567-3.1015-2.47182-3.52285-3.15187a10.4262,10.4262,0,0,1-1.60136-5.8188c.05755-1.28513.16246-3.62826,1.52121-4.20242,1.30185-.55005,3.06285.816,3.92314,1.85863,1.69758,2.057,1.42761,4.71827,1.20108,6.95025C300.04728,44.61117,299.8114,46.93457,298.70242,47.23645Z"/><path fill="#e19974" d="M298.89719,78.11682H285.69525L281.448,55.58408a.8956.8956,0,0,1,.874-1.0658h19.94846a.89559.89559,0,0,1,.87394,1.0658Z"/><path fill="#d6694b" d="M302.83755,57.21219l.30689-1.62809a.89559.89559,0,0,0-.87394-1.06581H282.322a.89559.89559,0,0,0-.87394,1.06581l.30689,1.62809Z"/><polygon fill="#d6694b" points="286.751 71.735 283.962 68.92 286.751 66.105 289.539 68.92 286.751 71.735"/><polygon fill="#d6694b" points="292.328 71.735 289.539 68.92 292.328 66.105 295.117 68.92 292.328 71.735"/><polygon fill="#d6694b" points="297.842 71.735 295.053 68.92 297.842 66.105 300.63 68.92 297.842 71.735"/><path fill="#7ca1b1" d="M346.07118,51.75937h44.2465a0,0,0,0,1,0,0v6.95719a0,0,0,0,1,0,0h-44.2465a.72314.72314,0,0,1-.72314-.72314V52.48251A.72314.72314,0,0,1,346.07118,51.75937Z" transform="rotate(97.76 367.833 55.238)"/><line x1="373.853" x2="366.959" y1="36.826" y2="35.886" fill="none" stroke="#fff" stroke-miterlimit="10" stroke-width=".84"/><line x1="373.399" x2="366.505" y1="40.156" y2="39.216" fill="none" stroke="#fff" stroke-miterlimit="10" stroke-width=".84"/><line x1="369.315" x2="362.421" y1="70.127" y2="69.188" fill="none" stroke="#fff" stroke-miterlimit="10" stroke-width=".84"/><line x1="368.861" x2="361.967" y1="73.458" y2="72.518" fill="none" stroke="#fff" stroke-miterlimit="10" stroke-width=".84"/><path fill="#f65b2b" d="M351.986,33.74007l0,44.2465h-6.95719l0-44.2465a.72313.72313,0,0,1,.72314-.72313h5.51091A.72314.72314,0,0,1,351.986,33.74007Z"/><rect width="6.957" height=".84" x="345.029" y="74.139" fill="#fff"/><rect width="6.957" height=".84" x="345.029" y="70.777" fill="#fff"/><rect width="6.957" height=".84" x="345.029" y="40.529" fill="#fff"/><rect width="6.957" height=".84" x="345.029" y="37.168" fill="#fff"/><path fill="#ffba55" d="M351.97753,77.98657V35.75664a.72313.72313,0,0,1,.72314-.72313h7.9308a.72313.72313,0,0,1,.72314.72313V77.98657Z"/><rect width="9.377" height=".84" x="351.978" y="72.701" fill="#fff"/><rect width="20.065" height="6.05" x="346.634" y="44.461" fill="#fff" transform="rotate(90 356.666 47.486)"/><path fill="#ffba55" d="M328.70728,33.74007l0,44.2465h6.95718l0-44.2465a.72312.72312,0,0,0-.72314-.72313h-5.51091A.72314.72314,0,0,0,328.70728,33.74007Z"/><rect width="6.957" height=".84" x="328.708" y="74.139" fill="#fff"/><rect width="6.957" height=".84" x="328.708" y="70.777" fill="#fff"/><rect width="6.957" height=".84" x="328.708" y="40.529" fill="#fff"/><rect width="6.957" height=".84" x="328.708" y="37.168" fill="#fff"/><path fill="#f65b2b" d="M328.7157,77.98657V35.75664a.72313.72313,0,0,0-.72313-.72313h-7.93081a.72313.72313,0,0,0-.72313.72313V77.98657Z"/><rect width="9.377" height=".84" x="319.339" y="72.701" fill="#fff"/><rect width="20.065" height="6.05" x="313.995" y="44.461" fill="#fff" transform="rotate(90 324.027 47.486)"/><path fill="#7ca1b1" d="M319.59322,51.8215h42.22992a0,0,0,0,1,0,0v9.37708a0,0,0,0,1,0,0H319.59322a.72314.72314,0,0,1-.72314-.72314v-7.9308A.72314.72314,0,0,1,319.59322,51.8215Z" transform="rotate(90 340.347 56.51)"/><line x1="335.658" x2="345.035" y1="73.122" y2="73.122" fill="none" stroke="#fff" stroke-miterlimit="10" stroke-width=".84"/><rect width="20.065" height="6.05" x="330.314" y="44.461" fill="#fff" transform="rotate(90 340.347 47.486)"/><line x1="1" x2="501" y1="378.17" y2="378.17" fill="none" stroke="#935b50" stroke-linecap="round" stroke-linejoin="round" stroke-width="2"/></g></g></svg>